<?xml version="1.0" encoding="utf-8" standalone="no"?>
<!DOCTYPE svg PUBLIC "-//W3C//DTD SVG 1.1//EN"
  "http://www.w3.org/Graphics/SVG/1.1/DTD/svg11.dtd">
<svg xmlns:xlink="http://www.w3.org/1999/xlink" width="1440pt" height="1440pt" viewBox="0 0 1440 1440" xmlns="http://www.w3.org/2000/svg" version="1.1">
 <metadata>
  <rdf:RDF xmlns:dc="http://purl.org/dc/elements/1.1/" xmlns:cc="http://creativecommons.org/ns#" xmlns:rdf="http://www.w3.org/1999/02/22-rdf-syntax-ns#">
   <cc:Work>
    <dc:type rdf:resource="http://purl.org/dc/dcmitype/StillImage"/>
    <dc:date>2024-02-18T13:46:38.000176</dc:date>
    <dc:format>image/svg+xml</dc:format>
    <dc:creator>
     <cc:Agent>
      <dc:title>Matplotlib v3.7.1, https://matplotlib.org/</dc:title>
     </cc:Agent>
    </dc:creator>
   </cc:Work>
  </rdf:RDF>
 </metadata>
 <defs>
  <style type="text/css">*{stroke-linejoin: round; stroke-linecap: butt}</style>
 </defs>
 <g id="figure_1">
  <g id="patch_1">
   <path d="M 0 1440 
L 1440 1440 
L 1440 0 
L 0 0 
z
" style="fill: #ffffff"/>
  </g>
  <g id="axes_1">
   <g id="LineCollection_1">
    <path d="M 509.137867 997.148994 
L 408.481373 913.520363 
" clip-path="url(#pea5b55c802)" style="fill: none; stroke: #000000"/>
    <path d="M 509.137867 997.148994 
L 663.783907 837.859518 
" clip-path="url(#pea5b55c802)" style="fill: none; stroke: #000000"/>
    <path d="M 509.137867 997.148994 
L 939.695228 726.662933 
" clip-path="url(#pea5b55c802)" style="fill: none; stroke: #000000"/>
    <path d="M 509.137867 997.148994 
L 1167.010354 388.587562 
" clip-path="url(#pea5b55c802)" style="fill: none; stroke: #000000"/>
    <path d="M 509.137867 997.148994 
L 124.958678 124.958678 
" clip-path="url(#pea5b55c802)" style="fill: none; stroke: #000000"/>
    <path d="M 509.137867 997.148994 
L 1315.041322 1315.041322 
" clip-path="url(#pea5b55c802)" style="fill: none; stroke: #000000"/>
    <path d="M 663.783907 837.859518 
L 408.481373 913.520363 
" clip-path="url(#pea5b55c802)" style="fill: none; stroke: #000000"/>
    <path d="M 663.783907 837.859518 
L 939.695228 726.662933 
" clip-path="url(#pea5b55c802)" style="fill: none; stroke: #000000"/>
    <path d="M 663.783907 837.859518 
L 905.57099 646.022019 
" clip-path="url(#pea5b55c802)" style="fill: none; stroke: #000000"/>
    <path d="M 663.783907 837.859518 
L 1167.010354 388.587562 
" clip-path="url(#pea5b55c802)" style="fill: none; stroke: #000000"/>
    <path d="M 663.783907 837.859518 
L 124.958678 124.958678 
" clip-path="url(#pea5b55c802)" style="fill: none; stroke: #000000"/>
    <path d="M 663.783907 837.859518 
L 1315.041322 1315.041322 
" clip-path="url(#pea5b55c802)" style="fill: none; stroke: #000000"/>
    <path d="M 408.481373 913.520363 
L 939.695228 726.662933 
" clip-path="url(#pea5b55c802)" style="fill: none; stroke: #000000"/>
    <path d="M 408.481373 913.520363 
L 1167.010354 388.587562 
" clip-path="url(#pea5b55c802)" style="fill: none; stroke: #000000"/>
    <path d="M 408.481373 913.520363 
L 124.958678 124.958678 
" clip-path="url(#pea5b55c802)" style="fill: none; stroke: #000000"/>
    <path d="M 408.481373 913.520363 
L 1315.041322 1315.041322 
" clip-path="url(#pea5b55c802)" style="fill: none; stroke: #000000"/>
    <path d="M 939.695228 726.662933 
L 905.57099 646.022019 
" clip-path="url(#pea5b55c802)" style="fill: none; stroke: #000000"/>
    <path d="M 939.695228 726.662933 
L 1151.759388 687.365274 
" clip-path="url(#pea5b55c802)" style="fill: none; stroke: #000000"/>
    <path d="M 939.695228 726.662933 
L 1114.551695 565.815442 
" clip-path="url(#pea5b55c802)" style="fill: none; stroke: #000000"/>
    <path d="M 939.695228 726.662933 
L 1032.169925 506.235401 
" clip-path="url(#pea5b55c802)" style="fill: none; stroke: #000000"/>
    <path d="M 939.695228 726.662933 
L 124.958678 124.958678 
" clip-path="url(#pea5b55c802)" style="fill: none; stroke: #000000"/>
    <path d="M 939.695228 726.662933 
L 1315.041322 1315.041322 
" clip-path="url(#pea5b55c802)" style="fill: none; stroke: #000000"/>
    <path d="M 1167.010354 388.587562 
L 1032.169925 506.235401 
" clip-path="url(#pea5b55c802)" style="fill: none; stroke: #000000"/>
    <path d="M 1167.010354 388.587562 
L 1114.551695 565.815442 
" clip-path="url(#pea5b55c802)" style="fill: none; stroke: #000000"/>
    <path d="M 1032.169925 506.235401 
L 1114.551695 565.815442 
" clip-path="url(#pea5b55c802)" style="fill: none; stroke: #000000"/>
    <path d="M 1032.169925 506.235401 
L 905.57099 646.022019 
" clip-path="url(#pea5b55c802)" style="fill: none; stroke: #000000"/>
    <path d="M 1032.169925 506.235401 
L 1151.759388 687.365274 
" clip-path="url(#pea5b55c802)" style="fill: none; stroke: #000000"/>
    <path d="M 1151.759388 687.365274 
L 905.57099 646.022019 
" clip-path="url(#pea5b55c802)" style="fill: none; stroke: #000000"/>
    <path d="M 1151.759388 687.365274 
L 1114.551695 565.815442 
" clip-path="url(#pea5b55c802)" style="fill: none; stroke: #000000"/>
    <path d="M 905.57099 646.022019 
L 1114.551695 565.815442 
" clip-path="url(#pea5b55c802)" style="fill: none; stroke: #000000"/>
   </g>
   <g id="text_1">
    <g id="patch_2">
     <path d="M 408.533421 923.755238 
L 499.066741 998.973211 
Q 501.374241 1000.890356 503.291386 998.582856 
L 509.476174 991.138765 
Q 511.393319 988.831265 509.085819 986.91412 
L 418.552499 911.696146 
Q 416.244999 909.779002 414.327854 912.086502 
L 408.143066 919.530593 
Q 406.225921 921.838093 408.533421 923.755238 
z
" clip-path="url(#pea5b55c802)" style="fill: #ffffff; stroke: #ffffff; stroke-linejoin: miter"/>
    </g>
    <g clip-path="url(#pea5b55c802)">
     <!-- 0.33333333333333337 -->
     <g transform="translate(411.779586 919.848111) rotate(-320.279115) scale(0.1 -0.1)">
      <defs>
       <path id="DejaVuSans-30" d="M 2034 4250 
Q 1547 4250 1301 3770 
Q 1056 3291 1056 2328 
Q 1056 1369 1301 889 
Q 1547 409 2034 409 
Q 2525 409 2770 889 
Q 3016 1369 3016 2328 
Q 3016 3291 2770 3770 
Q 2525 4250 2034 4250 
z
M 2034 4750 
Q 2819 4750 3233 4129 
Q 3647 3509 3647 2328 
Q 3647 1150 3233 529 
Q 2819 -91 2034 -91 
Q 1250 -91 836 529 
Q 422 1150 422 2328 
Q 422 3509 836 4129 
Q 1250 4750 2034 4750 
z
" transform="scale(0.015625)"/>
       <path id="DejaVuSans-2e" d="M 684 794 
L 1344 794 
L 1344 0 
L 684 0 
L 684 794 
z
" transform="scale(0.015625)"/>
       <path id="DejaVuSans-33" d="M 2597 2516 
Q 3050 2419 3304 2112 
Q 3559 1806 3559 1356 
Q 3559 666 3084 287 
Q 2609 -91 1734 -91 
Q 1441 -91 1130 -33 
Q 819 25 488 141 
L 488 750 
Q 750 597 1062 519 
Q 1375 441 1716 441 
Q 2309 441 2620 675 
Q 2931 909 2931 1356 
Q 2931 1769 2642 2001 
Q 2353 2234 1838 2234 
L 1294 2234 
L 1294 2753 
L 1863 2753 
Q 2328 2753 2575 2939 
Q 2822 3125 2822 3475 
Q 2822 3834 2567 4026 
Q 2313 4219 1838 4219 
Q 1578 4219 1281 4162 
Q 984 4106 628 3988 
L 628 4550 
Q 988 4650 1302 4700 
Q 1616 4750 1894 4750 
Q 2613 4750 3031 4423 
Q 3450 4097 3450 3541 
Q 3450 3153 3228 2886 
Q 3006 2619 2597 2516 
z
" transform="scale(0.015625)"/>
       <path id="DejaVuSans-37" d="M 525 4666 
L 3525 4666 
L 3525 4397 
L 1831 0 
L 1172 0 
L 2766 4134 
L 525 4134 
L 525 4666 
z
" transform="scale(0.015625)"/>
      </defs>
      <use xlink:href="#DejaVuSans-30"/>
      <use xlink:href="#DejaVuSans-2e" x="63.623047"/>
      <use xlink:href="#DejaVuSans-33" x="95.410156"/>
      <use xlink:href="#DejaVuSans-33" x="159.033203"/>
      <use xlink:href="#DejaVuSans-33" x="222.65625"/>
      <use xlink:href="#DejaVuSans-33" x="286.279297"/>
      <use xlink:href="#DejaVuSans-33" x="349.902344"/>
      <use xlink:href="#DejaVuSans-33" x="413.525391"/>
      <use xlink:href="#DejaVuSans-33" x="477.148438"/>
      <use xlink:href="#DejaVuSans-33" x="540.771484"/>
      <use xlink:href="#DejaVuSans-33" x="604.394531"/>
      <use xlink:href="#DejaVuSans-33" x="668.017578"/>
      <use xlink:href="#DejaVuSans-33" x="731.640625"/>
      <use xlink:href="#DejaVuSans-33" x="795.263672"/>
      <use xlink:href="#DejaVuSans-33" x="858.886719"/>
      <use xlink:href="#DejaVuSans-33" x="922.509766"/>
      <use xlink:href="#DejaVuSans-33" x="986.132812"/>
      <use xlink:href="#DejaVuSans-33" x="1049.755859"/>
      <use xlink:href="#DejaVuSans-37" x="1113.378906"/>
     </g>
    </g>
   </g>
   <g id="text_2">
    <g id="patch_3">
     <path d="M 553.306948 962.90746 
L 630.86368 883.021992 
Q 632.953395 880.86953 630.800934 878.779815 
L 623.857004 872.038307 
Q 621.704542 869.948592 619.614827 872.101053 
L 542.058094 951.986521 
Q 539.968379 954.138983 542.120841 956.228698 
L 549.064771 962.970206 
Q 551.217232 965.059921 553.306948 962.90746 
z
" clip-path="url(#pea5b55c802)" style="fill: #ffffff; stroke: #ffffff; stroke-linejoin: miter"/>
    </g>
    <g clip-path="url(#pea5b55c802)">
     <!-- 0.2886751345948129 -->
     <g transform="translate(549.662337 959.369093) rotate(-45.847403) scale(0.1 -0.1)">
      <defs>
       <path id="DejaVuSans-32" d="M 1228 531 
L 3431 531 
L 3431 0 
L 469 0 
L 469 531 
Q 828 903 1448 1529 
Q 2069 2156 2228 2338 
Q 2531 2678 2651 2914 
Q 2772 3150 2772 3378 
Q 2772 3750 2511 3984 
Q 2250 4219 1831 4219 
Q 1534 4219 1204 4116 
Q 875 4013 500 3803 
L 500 4441 
Q 881 4594 1212 4672 
Q 1544 4750 1819 4750 
Q 2544 4750 2975 4387 
Q 3406 4025 3406 3419 
Q 3406 3131 3298 2873 
Q 3191 2616 2906 2266 
Q 2828 2175 2409 1742 
Q 1991 1309 1228 531 
z
" transform="scale(0.015625)"/>
       <path id="DejaVuSans-38" d="M 2034 2216 
Q 1584 2216 1326 1975 
Q 1069 1734 1069 1313 
Q 1069 891 1326 650 
Q 1584 409 2034 409 
Q 2484 409 2743 651 
Q 3003 894 3003 1313 
Q 3003 1734 2745 1975 
Q 2488 2216 2034 2216 
z
M 1403 2484 
Q 997 2584 770 2862 
Q 544 3141 544 3541 
Q 544 4100 942 4425 
Q 1341 4750 2034 4750 
Q 2731 4750 3128 4425 
Q 3525 4100 3525 3541 
Q 3525 3141 3298 2862 
Q 3072 2584 2669 2484 
Q 3125 2378 3379 2068 
Q 3634 1759 3634 1313 
Q 3634 634 3220 271 
Q 2806 -91 2034 -91 
Q 1263 -91 848 271 
Q 434 634 434 1313 
Q 434 1759 690 2068 
Q 947 2378 1403 2484 
z
M 1172 3481 
Q 1172 3119 1398 2916 
Q 1625 2713 2034 2713 
Q 2441 2713 2670 2916 
Q 2900 3119 2900 3481 
Q 2900 3844 2670 4047 
Q 2441 4250 2034 4250 
Q 1625 4250 1398 4047 
Q 1172 3844 1172 3481 
z
" transform="scale(0.015625)"/>
       <path id="DejaVuSans-36" d="M 2113 2584 
Q 1688 2584 1439 2293 
Q 1191 2003 1191 1497 
Q 1191 994 1439 701 
Q 1688 409 2113 409 
Q 2538 409 2786 701 
Q 3034 994 3034 1497 
Q 3034 2003 2786 2293 
Q 2538 2584 2113 2584 
z
M 3366 4563 
L 3366 3988 
Q 3128 4100 2886 4159 
Q 2644 4219 2406 4219 
Q 1781 4219 1451 3797 
Q 1122 3375 1075 2522 
Q 1259 2794 1537 2939 
Q 1816 3084 2150 3084 
Q 2853 3084 3261 2657 
Q 3669 2231 3669 1497 
Q 3669 778 3244 343 
Q 2819 -91 2113 -91 
Q 1303 -91 875 529 
Q 447 1150 447 2328 
Q 447 3434 972 4092 
Q 1497 4750 2381 4750 
Q 2619 4750 2861 4703 
Q 3103 4656 3366 4563 
z
" transform="scale(0.015625)"/>
       <path id="DejaVuSans-35" d="M 691 4666 
L 3169 4666 
L 3169 4134 
L 1269 4134 
L 1269 2991 
Q 1406 3038 1543 3061 
Q 1681 3084 1819 3084 
Q 2600 3084 3056 2656 
Q 3513 2228 3513 1497 
Q 3513 744 3044 326 
Q 2575 -91 1722 -91 
Q 1428 -91 1123 -41 
Q 819 9 494 109 
L 494 744 
Q 775 591 1075 516 
Q 1375 441 1709 441 
Q 2250 441 2565 725 
Q 2881 1009 2881 1497 
Q 2881 1984 2565 2268 
Q 2250 2553 1709 2553 
Q 1456 2553 1204 2497 
Q 953 2441 691 2322 
L 691 4666 
z
" transform="scale(0.015625)"/>
       <path id="DejaVuSans-31" d="M 794 531 
L 1825 531 
L 1825 4091 
L 703 3866 
L 703 4441 
L 1819 4666 
L 2450 4666 
L 2450 531 
L 3481 531 
L 3481 0 
L 794 0 
L 794 531 
z
" transform="scale(0.015625)"/>
       <path id="DejaVuSans-34" d="M 2419 4116 
L 825 1625 
L 2419 1625 
L 2419 4116 
z
M 2253 4666 
L 3047 4666 
L 3047 1625 
L 3713 1625 
L 3713 1100 
L 3047 1100 
L 3047 0 
L 2419 0 
L 2419 1100 
L 313 1100 
L 313 1709 
L 2253 4666 
z
" transform="scale(0.015625)"/>
       <path id="DejaVuSans-39" d="M 703 97 
L 703 672 
Q 941 559 1184 500 
Q 1428 441 1663 441 
Q 2288 441 2617 861 
Q 2947 1281 2994 2138 
Q 2813 1869 2534 1725 
Q 2256 1581 1919 1581 
Q 1219 1581 811 2004 
Q 403 2428 403 3163 
Q 403 3881 828 4315 
Q 1253 4750 1959 4750 
Q 2769 4750 3195 4129 
Q 3622 3509 3622 2328 
Q 3622 1225 3098 567 
Q 2575 -91 1691 -91 
Q 1453 -91 1209 -44 
Q 966 3 703 97 
z
M 1959 2075 
Q 2384 2075 2632 2365 
Q 2881 2656 2881 3163 
Q 2881 3666 2632 3958 
Q 2384 4250 1959 4250 
Q 1534 4250 1286 3958 
Q 1038 3666 1038 3163 
Q 1038 2656 1286 2365 
Q 1534 2075 1959 2075 
z
" transform="scale(0.015625)"/>
      </defs>
      <use xlink:href="#DejaVuSans-30"/>
      <use xlink:href="#DejaVuSans-2e" x="63.623047"/>
      <use xlink:href="#DejaVuSans-32" x="95.410156"/>
      <use xlink:href="#DejaVuSans-38" x="159.033203"/>
      <use xlink:href="#DejaVuSans-38" x="222.65625"/>
      <use xlink:href="#DejaVuSans-36" x="286.279297"/>
      <use xlink:href="#DejaVuSans-37" x="349.902344"/>
      <use xlink:href="#DejaVuSans-35" x="413.525391"/>
      <use xlink:href="#DejaVuSans-31" x="477.148438"/>
      <use xlink:href="#DejaVuSans-33" x="540.771484"/>
      <use xlink:href="#DejaVuSans-34" x="604.394531"/>
      <use xlink:href="#DejaVuSans-35" x="668.017578"/>
      <use xlink:href="#DejaVuSans-39" x="731.640625"/>
      <use xlink:href="#DejaVuSans-34" x="795.263672"/>
      <use xlink:href="#DejaVuSans-38" x="858.886719"/>
      <use xlink:href="#DejaVuSans-31" x="922.509766"/>
      <use xlink:href="#DejaVuSans-32" x="986.132812"/>
      <use xlink:href="#DejaVuSans-39" x="1049.755859"/>
     </g>
    </g>
   </g>
   <g id="text_3">
    <g id="patch_4">
     <path d="M 721.853476 872.773756 
L 735.319756 864.313928 
Q 737.860065 862.718048 736.264184 860.17774 
L 731.115808 851.9826 
Q 729.519928 849.442291 726.97962 851.038171 
L 713.51334 859.497999 
Q 710.973031 861.093879 712.568911 863.634188 
L 717.717288 871.829328 
Q 719.313168 874.369636 721.853476 872.773756 
z
" clip-path="url(#pea5b55c802)" style="fill: #ffffff; stroke: #ffffff; stroke-linejoin: miter"/>
    </g>
    <g clip-path="url(#pea5b55c802)">
     <!-- 0.0 -->
     <g transform="translate(719.151285 868.472432) rotate(-32.137985) scale(0.1 -0.1)">
      <use xlink:href="#DejaVuSans-30"/>
      <use xlink:href="#DejaVuSans-2e" x="63.623047"/>
      <use xlink:href="#DejaVuSans-30" x="95.410156"/>
     </g>
    </g>
   </g>
   <g id="text_4">
    <g id="patch_5">
     <path d="M 837.560194 704.022387 
L 849.234409 693.223216 
Q 851.436659 691.186037 849.39948 688.983788 
L 842.827455 681.87924 
Q 840.790277 679.676991 838.588027 681.71417 
L 826.913812 692.51334 
Q 824.711563 694.550519 826.748742 696.752768 
L 833.320766 703.857316 
Q 835.357945 706.059566 837.560194 704.022387 
z
" clip-path="url(#pea5b55c802)" style="fill: #ffffff; stroke: #ffffff; stroke-linejoin: miter"/>
    </g>
    <g clip-path="url(#pea5b55c802)">
     <!-- 0.0 -->
     <g transform="translate(834.110783 700.293474) rotate(-42.770204) scale(0.1 -0.1)">
      <use xlink:href="#DejaVuSans-30"/>
      <use xlink:href="#DejaVuSans-2e" x="63.623047"/>
      <use xlink:href="#DejaVuSans-30" x="95.410156"/>
     </g>
    </g>
   </g>
   <g id="text_5">
    <g id="patch_6">
     <path d="M 306.669016 556.936885 
L 313.079626 571.490698 
Q 314.288937 574.236161 317.0344 573.02685 
L 325.891378 569.125561 
Q 328.63684 567.916249 327.427529 565.170787 
L 321.016919 550.616974 
Q 319.807608 547.871511 317.062145 549.080822 
L 308.205167 552.982111 
Q 305.459705 554.191423 306.669016 556.936885 
z
" clip-path="url(#pea5b55c802)" style="fill: #ffffff; stroke: #ffffff; stroke-linejoin: miter"/>
    </g>
    <g clip-path="url(#pea5b55c802)">
     <!-- 0.0 -->
     <g transform="translate(311.317714 554.889244) rotate(-293.772356) scale(0.1 -0.1)">
      <use xlink:href="#DejaVuSans-30"/>
      <use xlink:href="#DejaVuSans-2e" x="63.623047"/>
      <use xlink:href="#DejaVuSans-30" x="95.410156"/>
     </g>
    </g>
   </g>
   <g id="text_6">
    <g id="patch_7">
     <path d="M 901.816234 1160.469665 
L 916.610034 1166.305147 
Q 919.400769 1167.405965 920.501587 1164.615231 
L 924.052872 1155.612205 
Q 925.15369 1152.82147 922.362956 1151.720652 
L 907.569155 1145.885169 
Q 904.778421 1144.784351 903.677603 1147.575086 
L 900.126318 1156.578112 
Q 899.025499 1159.368847 901.816234 1160.469665 
z
" clip-path="url(#pea5b55c802)" style="fill: #ffffff; stroke: #ffffff; stroke-linejoin: miter"/>
    </g>
    <g clip-path="url(#pea5b55c802)">
     <!-- 0.0 -->
     <g transform="translate(903.680171 1155.744311) rotate(-338.473016) scale(0.1 -0.1)">
      <use xlink:href="#DejaVuSans-30"/>
      <use xlink:href="#DejaVuSans-2e" x="63.623047"/>
      <use xlink:href="#DejaVuSans-30" x="95.410156"/>
     </g>
    </g>
   </g>
   <g id="text_7">
    <g id="patch_8">
     <path d="M 484.98435 899.024188 
L 591.735749 867.3876 
Q 594.612095 866.535173 593.759668 863.658827 
L 591.009703 854.379614 
Q 590.157276 851.503267 587.280929 852.355694 
L 480.529531 883.992282 
Q 477.653185 884.844709 478.505612 887.721055 
L 481.255577 897.000268 
Q 482.108004 899.876615 484.98435 899.024188 
z
" clip-path="url(#pea5b55c802)" style="fill: #ffffff; stroke: #ffffff; stroke-linejoin: miter"/>
    </g>
    <g clip-path="url(#pea5b55c802)">
     <!-- 0.2886751345948129 -->
     <g transform="translate(483.540996 894.153874) rotate(-16.50759) scale(0.1 -0.1)">
      <use xlink:href="#DejaVuSans-30"/>
      <use xlink:href="#DejaVuSans-2e" x="63.623047"/>
      <use xlink:href="#DejaVuSans-32" x="95.410156"/>
      <use xlink:href="#DejaVuSans-38" x="159.033203"/>
      <use xlink:href="#DejaVuSans-38" x="222.65625"/>
      <use xlink:href="#DejaVuSans-36" x="286.279297"/>
      <use xlink:href="#DejaVuSans-37" x="349.902344"/>
      <use xlink:href="#DejaVuSans-35" x="413.525391"/>
      <use xlink:href="#DejaVuSans-31" x="477.148438"/>
      <use xlink:href="#DejaVuSans-33" x="540.771484"/>
      <use xlink:href="#DejaVuSans-34" x="604.394531"/>
      <use xlink:href="#DejaVuSans-35" x="668.017578"/>
      <use xlink:href="#DejaVuSans-39" x="731.640625"/>
      <use xlink:href="#DejaVuSans-34" x="795.263672"/>
      <use xlink:href="#DejaVuSans-38" x="858.886719"/>
      <use xlink:href="#DejaVuSans-31" x="922.509766"/>
      <use xlink:href="#DejaVuSans-32" x="986.132812"/>
      <use xlink:href="#DejaVuSans-39" x="1049.755859"/>
     </g>
    </g>
   </g>
   <g id="text_8">
    <g id="patch_9">
     <path d="M 794.34403 793.69348 
L 814.995599 785.370574 
Q 817.778126 784.249172 816.656724 781.466645 
L 813.039035 772.490097 
Q 811.917633 769.707569 809.135105 770.828971 
L 788.483537 779.151877 
Q 785.701009 780.273279 786.822411 783.055806 
L 790.440101 792.032355 
Q 791.561503 794.814882 794.34403 793.69348 
z
" clip-path="url(#pea5b55c802)" style="fill: #ffffff; stroke: #ffffff; stroke-linejoin: miter"/>
    </g>
    <g clip-path="url(#pea5b55c802)">
     <!-- 0.25 -->
     <g transform="translate(792.44524 788.982024) rotate(-21.950207) scale(0.1 -0.1)">
      <use xlink:href="#DejaVuSans-30"/>
      <use xlink:href="#DejaVuSans-2e" x="63.623047"/>
      <use xlink:href="#DejaVuSans-32" x="95.410156"/>
      <use xlink:href="#DejaVuSans-35" x="159.033203"/>
     </g>
    </g>
   </g>
   <g id="text_9">
    <g id="patch_10">
     <path d="M 743.446706 784.660591 
L 835.652844 711.502858 
Q 838.00298 709.638224 836.138346 707.288088 
L 830.122961 699.70645 
Q 828.258327 697.356313 825.908191 699.220947 
L 733.702053 772.37868 
Q 731.351917 774.243313 733.216551 776.59345 
L 739.231936 784.175088 
Q 741.09657 786.525224 743.446706 784.660591 
z
" clip-path="url(#pea5b55c802)" style="fill: #ffffff; stroke: #ffffff; stroke-linejoin: miter"/>
    </g>
    <g clip-path="url(#pea5b55c802)">
     <!-- 0.20412414523193154 -->
     <g transform="translate(740.289454 780.681271) rotate(-38.429012) scale(0.1 -0.1)">
      <use xlink:href="#DejaVuSans-30"/>
      <use xlink:href="#DejaVuSans-2e" x="63.623047"/>
      <use xlink:href="#DejaVuSans-32" x="95.410156"/>
      <use xlink:href="#DejaVuSans-30" x="159.033203"/>
      <use xlink:href="#DejaVuSans-34" x="222.65625"/>
      <use xlink:href="#DejaVuSans-31" x="286.279297"/>
      <use xlink:href="#DejaVuSans-32" x="349.902344"/>
      <use xlink:href="#DejaVuSans-34" x="413.525391"/>
      <use xlink:href="#DejaVuSans-31" x="477.148438"/>
      <use xlink:href="#DejaVuSans-34" x="540.771484"/>
      <use xlink:href="#DejaVuSans-35" x="604.394531"/>
      <use xlink:href="#DejaVuSans-32" x="668.017578"/>
      <use xlink:href="#DejaVuSans-33" x="731.640625"/>
      <use xlink:href="#DejaVuSans-31" x="795.263672"/>
      <use xlink:href="#DejaVuSans-39" x="858.886719"/>
      <use xlink:href="#DejaVuSans-33" x="922.509766"/>
      <use xlink:href="#DejaVuSans-31" x="986.132812"/>
      <use xlink:href="#DejaVuSans-35" x="1049.755859"/>
      <use xlink:href="#DejaVuSans-34" x="1113.378906"/>
     </g>
    </g>
   </g>
   <g id="text_10">
    <g id="patch_11">
     <path d="M 914.686239 624.366829 
L 926.549417 613.775587 
Q 928.787312 611.777632 926.789358 609.539737 
L 920.343872 602.320192 
Q 918.345917 600.082297 916.108022 602.080252 
L 904.244844 612.671493 
Q 902.006949 614.669448 904.004903 616.907344 
L 910.450389 624.126888 
Q 912.448344 626.364784 914.686239 624.366829 
z
" clip-path="url(#pea5b55c802)" style="fill: #ffffff; stroke: #ffffff; stroke-linejoin: miter"/>
    </g>
    <g clip-path="url(#pea5b55c802)">
     <!-- 0.0 -->
     <g transform="translate(911.303244 620.577559) rotate(-41.757932) scale(0.1 -0.1)">
      <use xlink:href="#DejaVuSans-30"/>
      <use xlink:href="#DejaVuSans-2e" x="63.623047"/>
      <use xlink:href="#DejaVuSans-30" x="95.410156"/>
     </g>
    </g>
   </g>
   <g id="text_11">
    <g id="patch_12">
     <path d="M 383.323023 479.792317 
L 392.912094 492.479283 
Q 394.720997 494.872579 397.114294 493.063676 
L 404.835169 487.228079 
Q 407.228466 485.419176 405.419562 483.025879 
L 395.830491 470.338913 
Q 394.021588 467.945617 391.628291 469.75452 
L 383.907416 475.590117 
Q 381.514119 477.39902 383.323023 479.792317 
z
" clip-path="url(#pea5b55c802)" style="fill: #ffffff; stroke: #ffffff; stroke-linejoin: miter"/>
    </g>
    <g clip-path="url(#pea5b55c802)">
     <!-- 0.0 -->
     <g transform="translate(387.375422 476.729429) rotate(-307.082744) scale(0.1 -0.1)">
      <use xlink:href="#DejaVuSans-30"/>
      <use xlink:href="#DejaVuSans-2e" x="63.623047"/>
      <use xlink:href="#DejaVuSans-30" x="95.410156"/>
     </g>
    </g>
   </g>
   <g id="text_12">
    <g id="patch_13">
     <path d="M 978.365357 1078.074105 
L 991.193539 1087.473422 
Q 993.613474 1089.246529 995.386582 1086.826593 
L 1001.106701 1079.019779 
Q 1002.879808 1076.599843 1000.459872 1074.826736 
L 987.631691 1065.427419 
Q 985.211755 1063.654312 983.438648 1066.074248 
L 977.718529 1073.881062 
Q 975.945421 1076.300998 978.365357 1078.074105 
z
" clip-path="url(#pea5b55c802)" style="fill: #ffffff; stroke: #ffffff; stroke-linejoin: miter"/>
    </g>
    <g clip-path="url(#pea5b55c802)">
     <!-- 0.0 -->
     <g transform="translate(981.367635 1073.976599) rotate(-323.769452) scale(0.1 -0.1)">
      <use xlink:href="#DejaVuSans-30"/>
      <use xlink:href="#DejaVuSans-2e" x="63.623047"/>
      <use xlink:href="#DejaVuSans-30" x="95.410156"/>
     </g>
    </g>
   </g>
   <g id="text_13">
    <g id="patch_14">
     <path d="M 669.188467 830.125086 
L 684.190534 824.848026 
Q 687.020556 823.85255 686.02508 821.022527 
L 682.813633 811.892757 
Q 681.818157 809.062734 678.988134 810.05821 
L 663.986067 815.335271 
Q 661.156045 816.330747 662.151521 819.16077 
L 665.362968 828.29054 
Q 666.358444 831.120563 669.188467 830.125086 
z
" clip-path="url(#pea5b55c802)" style="fill: #ffffff; stroke: #ffffff; stroke-linejoin: miter"/>
    </g>
    <g clip-path="url(#pea5b55c802)">
     <!-- 0.0 -->
     <g transform="translate(667.502898 825.33321) rotate(-19.379606) scale(0.1 -0.1)">
      <use xlink:href="#DejaVuSans-30"/>
      <use xlink:href="#DejaVuSans-2e" x="63.623047"/>
      <use xlink:href="#DejaVuSans-30" x="95.410156"/>
     </g>
    </g>
   </g>
   <g id="text_14">
    <g id="patch_15">
     <path d="M 785.668242 662.024912 
L 798.745302 652.975057 
Q 801.212187 651.267872 799.505002 648.800987 
L 793.997554 640.842714 
Q 792.29037 638.375829 789.823485 640.083013 
L 776.746425 649.132869 
Q 774.27954 650.840053 775.986724 653.306938 
L 781.494172 661.265212 
Q 783.201357 663.732097 785.668242 662.024912 
z
" clip-path="url(#pea5b55c802)" style="fill: #ffffff; stroke: #ffffff; stroke-linejoin: miter"/>
    </g>
    <g clip-path="url(#pea5b55c802)">
     <!-- 0.0 -->
     <g transform="translate(782.777587 657.847911) rotate(-34.684805) scale(0.1 -0.1)">
      <use xlink:href="#DejaVuSans-30"/>
      <use xlink:href="#DejaVuSans-2e" x="63.623047"/>
      <use xlink:href="#DejaVuSans-30" x="95.410156"/>
     </g>
    </g>
   </g>
   <g id="text_15">
    <g id="patch_16">
     <path d="M 256.65295 514.409175 
L 262.033607 529.374398 
Q 263.048626 532.19747 265.871699 531.182451 
L 274.979047 527.907958 
Q 277.802119 526.892939 276.7871 524.069867 
L 271.406443 509.104643 
Q 270.391424 506.281571 267.568352 507.29659 
L 258.461003 510.571083 
Q 255.637931 511.586102 256.65295 514.409175 
z
" clip-path="url(#pea5b55c802)" style="fill: #ffffff; stroke: #ffffff; stroke-linejoin: miter"/>
    </g>
    <g clip-path="url(#pea5b55c802)">
     <!-- 0.0 -->
     <g transform="translate(261.433058 512.690515) rotate(-289.775748) scale(0.1 -0.1)">
      <use xlink:href="#DejaVuSans-30"/>
      <use xlink:href="#DejaVuSans-2e" x="63.623047"/>
      <use xlink:href="#DejaVuSans-30" x="95.410156"/>
     </g>
    </g>
   </g>
   <g id="text_16">
    <g id="patch_17">
     <path d="M 851.316438 1118.228261 
L 865.857187 1124.668448 
Q 868.600185 1125.883339 869.815076 1123.140341 
L 873.734364 1114.291314 
Q 874.949255 1111.548315 872.206257 1110.333424 
L 857.665508 1103.893237 
Q 854.92251 1102.678347 853.707619 1105.421345 
L 849.78833 1114.270372 
Q 848.57344 1117.013371 851.316438 1118.228261 
z
" clip-path="url(#pea5b55c802)" style="fill: #ffffff; stroke: #ffffff; stroke-linejoin: miter"/>
    </g>
    <g clip-path="url(#pea5b55c802)">
     <!-- 0.0 -->
     <g transform="translate(853.373527 1113.583737) rotate(-336.111154) scale(0.1 -0.1)">
      <use xlink:href="#DejaVuSans-30"/>
      <use xlink:href="#DejaVuSans-2e" x="63.623047"/>
      <use xlink:href="#DejaVuSans-30" x="95.410156"/>
     </g>
    </g>
   </g>
   <g id="text_17">
    <g id="patch_18">
     <path d="M 893.718696 638.128461 
L 937.108928 740.666368 
Q 938.27805 743.429185 941.040866 742.260064 
L 949.953827 738.488429 
Q 952.716644 737.319308 951.547523 734.556492 
L 908.15729 632.018584 
Q 906.988169 629.255767 904.225352 630.424889 
L 895.312391 634.196523 
Q 892.549574 635.365644 893.718696 638.128461 
z
" clip-path="url(#pea5b55c802)" style="fill: #ffffff; stroke: #ffffff; stroke-linejoin: miter"/>
    </g>
    <g clip-path="url(#pea5b55c802)">
     <!-- 0.4082482904638631 -->
     <g transform="translate(898.396777 636.14887) rotate(-292.936276) scale(0.1 -0.1)">
      <use xlink:href="#DejaVuSans-30"/>
      <use xlink:href="#DejaVuSans-2e" x="63.623047"/>
      <use xlink:href="#DejaVuSans-34" x="95.410156"/>
      <use xlink:href="#DejaVuSans-30" x="159.033203"/>
      <use xlink:href="#DejaVuSans-38" x="222.65625"/>
      <use xlink:href="#DejaVuSans-32" x="286.279297"/>
      <use xlink:href="#DejaVuSans-34" x="349.902344"/>
      <use xlink:href="#DejaVuSans-38" x="413.525391"/>
      <use xlink:href="#DejaVuSans-32" x="477.148438"/>
      <use xlink:href="#DejaVuSans-39" x="540.771484"/>
      <use xlink:href="#DejaVuSans-30" x="604.394531"/>
      <use xlink:href="#DejaVuSans-34" x="668.017578"/>
      <use xlink:href="#DejaVuSans-36" x="731.640625"/>
      <use xlink:href="#DejaVuSans-33" x="795.263672"/>
      <use xlink:href="#DejaVuSans-38" x="858.886719"/>
      <use xlink:href="#DejaVuSans-36" x="922.509766"/>
      <use xlink:href="#DejaVuSans-33" x="986.132812"/>
      <use xlink:href="#DejaVuSans-31" x="1049.755859"/>
     </g>
    </g>
   </g>
   <g id="text_18">
    <g id="patch_19">
     <path d="M 989.289263 725.445174 
L 1105.022036 703.998707 
Q 1107.971816 703.452082 1107.425191 700.502302 
L 1105.661758 690.986189 
Q 1105.115134 688.036409 1102.165354 688.583034 
L 986.432581 710.029501 
Q 983.482801 710.576125 984.029425 713.525905 
L 985.792859 723.042018 
Q 986.339483 725.991798 989.289263 725.445174 
z
" clip-path="url(#pea5b55c802)" style="fill: #ffffff; stroke: #ffffff; stroke-linejoin: miter"/>
    </g>
    <g clip-path="url(#pea5b55c802)">
     <!-- 0.22360679774997896 -->
     <g transform="translate(988.363702 720.45052) rotate(-10.498404) scale(0.1 -0.1)">
      <use xlink:href="#DejaVuSans-30"/>
      <use xlink:href="#DejaVuSans-2e" x="63.623047"/>
      <use xlink:href="#DejaVuSans-32" x="95.410156"/>
      <use xlink:href="#DejaVuSans-32" x="159.033203"/>
      <use xlink:href="#DejaVuSans-33" x="222.65625"/>
      <use xlink:href="#DejaVuSans-36" x="286.279297"/>
      <use xlink:href="#DejaVuSans-30" x="349.902344"/>
      <use xlink:href="#DejaVuSans-36" x="413.525391"/>
      <use xlink:href="#DejaVuSans-37" x="477.148438"/>
      <use xlink:href="#DejaVuSans-39" x="540.771484"/>
      <use xlink:href="#DejaVuSans-37" x="604.394531"/>
      <use xlink:href="#DejaVuSans-37" x="668.017578"/>
      <use xlink:href="#DejaVuSans-34" x="731.640625"/>
      <use xlink:href="#DejaVuSans-39" x="795.263672"/>
      <use xlink:href="#DejaVuSans-39" x="858.886719"/>
      <use xlink:href="#DejaVuSans-37" x="922.509766"/>
      <use xlink:href="#DejaVuSans-38" x="986.132812"/>
      <use xlink:href="#DejaVuSans-39" x="1049.755859"/>
      <use xlink:href="#DejaVuSans-36" x="1113.378906"/>
     </g>
    </g>
   </g>
   <g id="text_19">
    <g id="patch_20">
     <path d="M 989.11737 691.851623 
L 1075.743799 612.165443 
Q 1077.951721 610.134413 1075.920691 607.926491 
L 1069.368505 600.803644 
Q 1067.337475 598.595722 1065.129554 600.626752 
L 978.503124 680.312932 
Q 976.295202 682.343962 978.326232 684.551884 
L 984.878418 691.674731 
Q 986.909448 693.882653 989.11737 691.851623 
z
" clip-path="url(#pea5b55c802)" style="fill: #ffffff; stroke: #ffffff; stroke-linejoin: miter"/>
    </g>
    <g clip-path="url(#pea5b55c802)">
     <!-- 0.17677669529663687 -->
     <g transform="translate(985.678371 688.113106) rotate(-42.610425) scale(0.1 -0.1)">
      <use xlink:href="#DejaVuSans-30"/>
      <use xlink:href="#DejaVuSans-2e" x="63.623047"/>
      <use xlink:href="#DejaVuSans-31" x="95.410156"/>
      <use xlink:href="#DejaVuSans-37" x="159.033203"/>
      <use xlink:href="#DejaVuSans-36" x="222.65625"/>
      <use xlink:href="#DejaVuSans-37" x="286.279297"/>
      <use xlink:href="#DejaVuSans-37" x="349.902344"/>
      <use xlink:href="#DejaVuSans-36" x="413.525391"/>
      <use xlink:href="#DejaVuSans-36" x="477.148438"/>
      <use xlink:href="#DejaVuSans-39" x="540.771484"/>
      <use xlink:href="#DejaVuSans-35" x="604.394531"/>
      <use xlink:href="#DejaVuSans-32" x="668.017578"/>
      <use xlink:href="#DejaVuSans-39" x="731.640625"/>
      <use xlink:href="#DejaVuSans-36" x="795.263672"/>
      <use xlink:href="#DejaVuSans-36" x="858.886719"/>
      <use xlink:href="#DejaVuSans-33" x="922.509766"/>
      <use xlink:href="#DejaVuSans-36" x="986.132812"/>
      <use xlink:href="#DejaVuSans-38" x="1049.755859"/>
      <use xlink:href="#DejaVuSans-37" x="1113.378906"/>
     </g>
    </g>
   </g>
   <g id="text_20">
    <g id="patch_21">
     <path d="M 970.393991 673.751084 
L 1015.928567 565.212482 
Q 1017.089146 562.446066 1014.32273 561.285488 
L 1005.398157 557.541413 
Q 1002.631741 556.380834 1001.471162 559.14725 
L 955.936586 667.685852 
Q 954.776008 670.452268 957.542424 671.612846 
L 966.466997 675.356921 
Q 969.233413 676.5175 970.393991 673.751084 
z
" clip-path="url(#pea5b55c802)" style="fill: #ffffff; stroke: #ffffff; stroke-linejoin: miter"/>
    </g>
    <g clip-path="url(#pea5b55c802)">
     <!-- 0.14433756729740646 -->
     <g transform="translate(965.709815 671.785958) rotate(-67.240769) scale(0.1 -0.1)">
      <use xlink:href="#DejaVuSans-30"/>
      <use xlink:href="#DejaVuSans-2e" x="63.623047"/>
      <use xlink:href="#DejaVuSans-31" x="95.410156"/>
      <use xlink:href="#DejaVuSans-34" x="159.033203"/>
      <use xlink:href="#DejaVuSans-34" x="222.65625"/>
      <use xlink:href="#DejaVuSans-33" x="286.279297"/>
      <use xlink:href="#DejaVuSans-33" x="349.902344"/>
      <use xlink:href="#DejaVuSans-37" x="413.525391"/>
      <use xlink:href="#DejaVuSans-35" x="477.148438"/>
      <use xlink:href="#DejaVuSans-36" x="540.771484"/>
      <use xlink:href="#DejaVuSans-37" x="604.394531"/>
      <use xlink:href="#DejaVuSans-32" x="668.017578"/>
      <use xlink:href="#DejaVuSans-39" x="731.640625"/>
      <use xlink:href="#DejaVuSans-37" x="795.263672"/>
      <use xlink:href="#DejaVuSans-34" x="858.886719"/>
      <use xlink:href="#DejaVuSans-30" x="922.509766"/>
      <use xlink:href="#DejaVuSans-36" x="986.132812"/>
      <use xlink:href="#DejaVuSans-34" x="1049.755859"/>
      <use xlink:href="#DejaVuSans-36" x="1113.378906"/>
     </g>
    </g>
   </g>
   <g id="text_21">
    <g id="patch_22">
     <path d="M 521.273645 427.392776 
L 534.066253 436.840451 
Q 536.479478 438.622681 538.261708 436.209456 
L 544.011256 428.424291 
Q 545.793486 426.011065 543.380261 424.228835 
L 530.587653 414.78116 
Q 528.174428 412.99893 526.392198 415.412155 
L 520.64265 423.19732 
Q 518.86042 425.610546 521.273645 427.392776 
z
" clip-path="url(#pea5b55c802)" style="fill: #ffffff; stroke: #ffffff; stroke-linejoin: miter"/>
    </g>
    <g clip-path="url(#pea5b55c802)">
     <!-- 0.0 -->
     <g transform="translate(524.291369 423.306632) rotate(-323.553162) scale(0.1 -0.1)">
      <use xlink:href="#DejaVuSans-30"/>
      <use xlink:href="#DejaVuSans-2e" x="63.623047"/>
      <use xlink:href="#DejaVuSans-30" x="95.410156"/>
     </g>
    </g>
   </g>
   <g id="text_22">
    <g id="patch_23">
     <path d="M 1116.482977 1018.364452 
L 1125.035948 1031.771766 
Q 1126.649399 1034.300951 1129.178584 1032.6875 
L 1137.33784 1027.48244 
Q 1139.867024 1025.868989 1138.253573 1023.339804 
L 1129.700603 1009.93249 
Q 1128.087152 1007.403305 1125.557967 1009.016756 
L 1117.398711 1014.221816 
Q 1114.869526 1015.835267 1116.482977 1018.364452 
z
" clip-path="url(#pea5b55c802)" style="fill: #ffffff; stroke: #ffffff; stroke-linejoin: miter"/>
    </g>
    <g clip-path="url(#pea5b55c802)">
     <!-- 0.0 -->
     <g transform="translate(1120.765467 1015.632509) rotate(-302.535154) scale(0.1 -0.1)">
      <use xlink:href="#DejaVuSans-30"/>
      <use xlink:href="#DejaVuSans-2e" x="63.623047"/>
      <use xlink:href="#DejaVuSans-30" x="95.410156"/>
     </g>
    </g>
   </g>
   <g id="text_23">
    <g id="patch_24">
     <path d="M 1062.795643 489.917947 
L 1146.691995 416.718651 
Q 1148.952527 414.746344 1146.98022 412.485812 
L 1140.617475 405.193241 
Q 1138.645168 402.932709 1136.384636 404.905016 
L 1052.488285 478.104312 
Q 1050.227752 480.076619 1052.200059 482.337151 
L 1058.562804 489.629722 
Q 1060.535111 491.890254 1062.795643 489.917947 
z
" clip-path="url(#pea5b55c802)" style="fill: #ffffff; stroke: #ffffff; stroke-linejoin: miter"/>
    </g>
    <g clip-path="url(#pea5b55c802)">
     <!-- 0.3651483716701107 -->
     <g transform="translate(1059.456075 486.090348) rotate(-41.104593) scale(0.1 -0.1)">
      <use xlink:href="#DejaVuSans-30"/>
      <use xlink:href="#DejaVuSans-2e" x="63.623047"/>
      <use xlink:href="#DejaVuSans-33" x="95.410156"/>
      <use xlink:href="#DejaVuSans-36" x="159.033203"/>
      <use xlink:href="#DejaVuSans-35" x="222.65625"/>
      <use xlink:href="#DejaVuSans-31" x="286.279297"/>
      <use xlink:href="#DejaVuSans-34" x="349.902344"/>
      <use xlink:href="#DejaVuSans-38" x="413.525391"/>
      <use xlink:href="#DejaVuSans-33" x="477.148438"/>
      <use xlink:href="#DejaVuSans-37" x="540.771484"/>
      <use xlink:href="#DejaVuSans-31" x="604.394531"/>
      <use xlink:href="#DejaVuSans-36" x="668.017578"/>
      <use xlink:href="#DejaVuSans-37" x="731.640625"/>
      <use xlink:href="#DejaVuSans-30" x="795.263672"/>
      <use xlink:href="#DejaVuSans-31" x="858.886719"/>
      <use xlink:href="#DejaVuSans-31" x="922.509766"/>
      <use xlink:href="#DejaVuSans-30" x="986.132812"/>
      <use xlink:href="#DejaVuSans-37" x="1049.755859"/>
     </g>
    </g>
   </g>
   <g id="text_24">
    <g id="patch_25">
     <path d="M 1131.59428 535.857798 
L 1165.001156 422.995021 
Q 1165.852626 420.118392 1162.975996 419.266922 
L 1153.695868 416.520046 
Q 1150.819238 415.668576 1149.967769 418.545206 
L 1116.560892 531.407982 
Q 1115.709423 534.284612 1118.586053 535.136082 
L 1127.866181 537.882958 
Q 1130.742811 538.734428 1131.59428 535.857798 
z
" clip-path="url(#pea5b55c802)" style="fill: #ffffff; stroke: #ffffff; stroke-linejoin: miter"/>
    </g>
    <g clip-path="url(#pea5b55c802)">
     <!-- 0.22360679774997896 -->
     <g transform="translate(1126.723486 534.416065) rotate(-73.511482) scale(0.1 -0.1)">
      <use xlink:href="#DejaVuSans-30"/>
      <use xlink:href="#DejaVuSans-2e" x="63.623047"/>
      <use xlink:href="#DejaVuSans-32" x="95.410156"/>
      <use xlink:href="#DejaVuSans-32" x="159.033203"/>
      <use xlink:href="#DejaVuSans-33" x="222.65625"/>
      <use xlink:href="#DejaVuSans-36" x="286.279297"/>
      <use xlink:href="#DejaVuSans-30" x="349.902344"/>
      <use xlink:href="#DejaVuSans-36" x="413.525391"/>
      <use xlink:href="#DejaVuSans-37" x="477.148438"/>
      <use xlink:href="#DejaVuSans-39" x="540.771484"/>
      <use xlink:href="#DejaVuSans-37" x="604.394531"/>
      <use xlink:href="#DejaVuSans-37" x="668.017578"/>
      <use xlink:href="#DejaVuSans-34" x="731.640625"/>
      <use xlink:href="#DejaVuSans-39" x="795.263672"/>
      <use xlink:href="#DejaVuSans-39" x="858.886719"/>
      <use xlink:href="#DejaVuSans-37" x="922.509766"/>
      <use xlink:href="#DejaVuSans-38" x="986.132812"/>
      <use xlink:href="#DejaVuSans-39" x="1049.755859"/>
      <use xlink:href="#DejaVuSans-36" x="1113.378906"/>
     </g>
    </g>
   </g>
   <g id="text_25">
    <g id="patch_26">
     <path d="M 1021.079781 507.889123 
L 1116.454127 576.865639 
Q 1118.885014 578.623702 1120.643078 576.192815 
L 1126.314663 568.350671 
Q 1128.072727 565.919783 1125.641839 564.16172 
L 1030.267493 495.185204 
Q 1027.836606 493.427141 1026.078542 495.858028 
L 1020.406957 503.700172 
Q 1018.648894 506.131059 1021.079781 507.889123 
z
" clip-path="url(#pea5b55c802)" style="fill: #ffffff; stroke: #ffffff; stroke-linejoin: miter"/>
    </g>
    <g clip-path="url(#pea5b55c802)">
     <!-- 0.40824829046386296 -->
     <g transform="translate(1024.056585 503.773073) rotate(-324.12484) scale(0.1 -0.1)">
      <use xlink:href="#DejaVuSans-30"/>
      <use xlink:href="#DejaVuSans-2e" x="63.623047"/>
      <use xlink:href="#DejaVuSans-34" x="95.410156"/>
      <use xlink:href="#DejaVuSans-30" x="159.033203"/>
      <use xlink:href="#DejaVuSans-38" x="222.65625"/>
      <use xlink:href="#DejaVuSans-32" x="286.279297"/>
      <use xlink:href="#DejaVuSans-34" x="349.902344"/>
      <use xlink:href="#DejaVuSans-38" x="413.525391"/>
      <use xlink:href="#DejaVuSans-32" x="477.148438"/>
      <use xlink:href="#DejaVuSans-39" x="540.771484"/>
      <use xlink:href="#DejaVuSans-30" x="604.394531"/>
      <use xlink:href="#DejaVuSans-34" x="668.017578"/>
      <use xlink:href="#DejaVuSans-36" x="731.640625"/>
      <use xlink:href="#DejaVuSans-33" x="795.263672"/>
      <use xlink:href="#DejaVuSans-38" x="858.886719"/>
      <use xlink:href="#DejaVuSans-36" x="922.509766"/>
      <use xlink:href="#DejaVuSans-32" x="986.132812"/>
      <use xlink:href="#DejaVuSans-39" x="1049.755859"/>
      <use xlink:href="#DejaVuSans-36" x="1113.378906"/>
     </g>
    </g>
   </g>
   <g id="text_26">
    <g id="patch_27">
     <path d="M 935.175013 625.011982 
L 1014.186608 537.769828 
Q 1016.200444 535.546213 1013.976829 533.532377 
L 1006.803354 527.035658 
Q 1004.579738 525.021822 1002.565902 527.245438 
L 923.554307 614.487591 
Q 921.540471 616.711207 923.764086 618.725043 
L 930.937561 625.221761 
Q 933.161177 627.235597 935.175013 625.011982 
z
" clip-path="url(#pea5b55c802)" style="fill: #ffffff; stroke: #ffffff; stroke-linejoin: miter"/>
    </g>
    <g clip-path="url(#pea5b55c802)">
     <!-- 0.23570226039551587 -->
     <g transform="translate(931.409922 621.602096) rotate(-47.834171) scale(0.1 -0.1)">
      <use xlink:href="#DejaVuSans-30"/>
      <use xlink:href="#DejaVuSans-2e" x="63.623047"/>
      <use xlink:href="#DejaVuSans-32" x="95.410156"/>
      <use xlink:href="#DejaVuSans-33" x="159.033203"/>
      <use xlink:href="#DejaVuSans-35" x="222.65625"/>
      <use xlink:href="#DejaVuSans-37" x="286.279297"/>
      <use xlink:href="#DejaVuSans-30" x="349.902344"/>
      <use xlink:href="#DejaVuSans-32" x="413.525391"/>
      <use xlink:href="#DejaVuSans-32" x="477.148438"/>
      <use xlink:href="#DejaVuSans-36" x="540.771484"/>
      <use xlink:href="#DejaVuSans-30" x="604.394531"/>
      <use xlink:href="#DejaVuSans-33" x="668.017578"/>
      <use xlink:href="#DejaVuSans-39" x="731.640625"/>
      <use xlink:href="#DejaVuSans-35" x="795.263672"/>
      <use xlink:href="#DejaVuSans-35" x="858.886719"/>
      <use xlink:href="#DejaVuSans-31" x="922.509766"/>
      <use xlink:href="#DejaVuSans-35" x="986.132812"/>
      <use xlink:href="#DejaVuSans-38" x="1049.755859"/>
      <use xlink:href="#DejaVuSans-37" x="1113.378906"/>
     </g>
    </g>
   </g>
   <g id="text_27">
    <g id="patch_28">
     <path d="M 1052.996641 552.006911 
L 1117.849014 650.232138 
Q 1119.501962 652.735689 1122.005512 651.082741 
L 1130.08207 645.750262 
Q 1132.58562 644.097315 1130.932672 641.593764 
L 1066.080299 543.368537 
Q 1064.427351 540.864987 1061.923801 542.517934 
L 1053.847244 547.850413 
Q 1051.343693 549.503361 1052.996641 552.006911 
z
" clip-path="url(#pea5b55c802)" style="fill: #ffffff; stroke: #ffffff; stroke-linejoin: miter"/>
    </g>
    <g clip-path="url(#pea5b55c802)">
     <!-- 0.12909944487358055 -->
     <g transform="translate(1057.235725 549.208091) rotate(-303.434449) scale(0.1 -0.1)">
      <use xlink:href="#DejaVuSans-30"/>
      <use xlink:href="#DejaVuSans-2e" x="63.623047"/>
      <use xlink:href="#DejaVuSans-31" x="95.410156"/>
      <use xlink:href="#DejaVuSans-32" x="159.033203"/>
      <use xlink:href="#DejaVuSans-39" x="222.65625"/>
      <use xlink:href="#DejaVuSans-30" x="286.279297"/>
      <use xlink:href="#DejaVuSans-39" x="349.902344"/>
      <use xlink:href="#DejaVuSans-39" x="413.525391"/>
      <use xlink:href="#DejaVuSans-34" x="477.148438"/>
      <use xlink:href="#DejaVuSans-34" x="540.771484"/>
      <use xlink:href="#DejaVuSans-34" x="604.394531"/>
      <use xlink:href="#DejaVuSans-38" x="668.017578"/>
      <use xlink:href="#DejaVuSans-37" x="731.640625"/>
      <use xlink:href="#DejaVuSans-33" x="795.263672"/>
      <use xlink:href="#DejaVuSans-35" x="858.886719"/>
      <use xlink:href="#DejaVuSans-38" x="922.509766"/>
      <use xlink:href="#DejaVuSans-30" x="986.132812"/>
      <use xlink:href="#DejaVuSans-35" x="1049.755859"/>
      <use xlink:href="#DejaVuSans-35" x="1113.378906"/>
     </g>
    </g>
   </g>
   <g id="text_28">
    <g id="patch_29">
     <path d="M 969.32807 664.677794 
L 1085.405785 684.171119 
Q 1088.364357 684.667962 1088.8612 681.709391 
L 1090.464036 672.164915 
Q 1090.960879 669.206343 1088.002308 668.7095 
L 971.924593 649.216174 
Q 968.966021 648.719331 968.469178 651.677903 
L 966.866342 661.222379 
Q 966.369499 664.180951 969.32807 664.677794 
z
" clip-path="url(#pea5b55c802)" style="fill: #ffffff; stroke: #ffffff; stroke-linejoin: miter"/>
    </g>
    <g clip-path="url(#pea5b55c802)">
     <!-- 0.18257418583505536 -->
     <g transform="translate(970.169339 659.668254) rotate(-350.467075) scale(0.1 -0.1)">
      <use xlink:href="#DejaVuSans-30"/>
      <use xlink:href="#DejaVuSans-2e" x="63.623047"/>
      <use xlink:href="#DejaVuSans-31" x="95.410156"/>
      <use xlink:href="#DejaVuSans-38" x="159.033203"/>
      <use xlink:href="#DejaVuSans-32" x="222.65625"/>
      <use xlink:href="#DejaVuSans-35" x="286.279297"/>
      <use xlink:href="#DejaVuSans-37" x="349.902344"/>
      <use xlink:href="#DejaVuSans-34" x="413.525391"/>
      <use xlink:href="#DejaVuSans-31" x="477.148438"/>
      <use xlink:href="#DejaVuSans-38" x="540.771484"/>
      <use xlink:href="#DejaVuSans-35" x="604.394531"/>
      <use xlink:href="#DejaVuSans-38" x="668.017578"/>
      <use xlink:href="#DejaVuSans-33" x="731.640625"/>
      <use xlink:href="#DejaVuSans-35" x="795.263672"/>
      <use xlink:href="#DejaVuSans-30" x="858.886719"/>
      <use xlink:href="#DejaVuSans-35" x="922.509766"/>
      <use xlink:href="#DejaVuSans-35" x="986.132812"/>
      <use xlink:href="#DejaVuSans-33" x="1049.755859"/>
      <use xlink:href="#DejaVuSans-36" x="1113.378906"/>
     </g>
    </g>
   </g>
   <g id="text_29">
    <g id="patch_30">
     <path d="M 1108.433722 572.610835 
L 1142.885888 685.15893 
Q 1143.764 688.02754 1146.63261 687.149428 
L 1155.886863 684.316603 
Q 1158.755472 683.438491 1157.877361 680.569882 
L 1123.425195 568.021786 
Q 1122.547083 565.153176 1119.678473 566.031288 
L 1110.42422 568.864113 
Q 1107.555611 569.742225 1108.433722 572.610835 
z
" clip-path="url(#pea5b55c802)" style="fill: #ffffff; stroke: #ffffff; stroke-linejoin: miter"/>
    </g>
    <g clip-path="url(#pea5b55c802)">
     <!-- 0.15811388300841897 -->
     <g transform="translate(1113.290936 571.12399) rotate(-287.019905) scale(0.1 -0.1)">
      <use xlink:href="#DejaVuSans-30"/>
      <use xlink:href="#DejaVuSans-2e" x="63.623047"/>
      <use xlink:href="#DejaVuSans-31" x="95.410156"/>
      <use xlink:href="#DejaVuSans-35" x="159.033203"/>
      <use xlink:href="#DejaVuSans-38" x="222.65625"/>
      <use xlink:href="#DejaVuSans-31" x="286.279297"/>
      <use xlink:href="#DejaVuSans-31" x="349.902344"/>
      <use xlink:href="#DejaVuSans-33" x="413.525391"/>
      <use xlink:href="#DejaVuSans-38" x="477.148438"/>
      <use xlink:href="#DejaVuSans-38" x="540.771484"/>
      <use xlink:href="#DejaVuSans-33" x="604.394531"/>
      <use xlink:href="#DejaVuSans-30" x="668.017578"/>
      <use xlink:href="#DejaVuSans-30" x="731.640625"/>
      <use xlink:href="#DejaVuSans-38" x="795.263672"/>
      <use xlink:href="#DejaVuSans-34" x="858.886719"/>
      <use xlink:href="#DejaVuSans-31" x="922.509766"/>
      <use xlink:href="#DejaVuSans-38" x="986.132812"/>
      <use xlink:href="#DejaVuSans-39" x="1049.755859"/>
      <use xlink:href="#DejaVuSans-37" x="1113.378906"/>
     </g>
    </g>
   </g>
   <g id="text_30">
    <g id="patch_31">
     <path d="M 960.89635 633.184793 
L 1064.844042 593.289777 
Q 1067.644844 592.214832 1066.569899 589.41403 
L 1063.102082 580.378525 
Q 1062.027137 577.577723 1059.226334 578.652668 
L 955.278643 618.547684 
Q 952.477841 619.622629 953.552786 622.423431 
L 957.020603 631.458936 
Q 958.095548 634.259738 960.89635 633.184793 
z
" clip-path="url(#pea5b55c802)" style="fill: #ffffff; stroke: #ffffff; stroke-linejoin: miter"/>
    </g>
    <g clip-path="url(#pea5b55c802)">
     <!-- 0.2886751345948129 -->
     <g transform="translate(959.076222 628.442393) rotate(-20.99675) scale(0.1 -0.1)">
      <use xlink:href="#DejaVuSans-30"/>
      <use xlink:href="#DejaVuSans-2e" x="63.623047"/>
      <use xlink:href="#DejaVuSans-32" x="95.410156"/>
      <use xlink:href="#DejaVuSans-38" x="159.033203"/>
      <use xlink:href="#DejaVuSans-38" x="222.65625"/>
      <use xlink:href="#DejaVuSans-36" x="286.279297"/>
      <use xlink:href="#DejaVuSans-37" x="349.902344"/>
      <use xlink:href="#DejaVuSans-35" x="413.525391"/>
      <use xlink:href="#DejaVuSans-31" x="477.148438"/>
      <use xlink:href="#DejaVuSans-33" x="540.771484"/>
      <use xlink:href="#DejaVuSans-34" x="604.394531"/>
      <use xlink:href="#DejaVuSans-35" x="668.017578"/>
      <use xlink:href="#DejaVuSans-39" x="731.640625"/>
      <use xlink:href="#DejaVuSans-34" x="795.263672"/>
      <use xlink:href="#DejaVuSans-38" x="858.886719"/>
      <use xlink:href="#DejaVuSans-31" x="922.509766"/>
      <use xlink:href="#DejaVuSans-32" x="986.132812"/>
      <use xlink:href="#DejaVuSans-39" x="1049.755859"/>
     </g>
    </g>
   </g>
   <g id="PathCollection_1">
    <defs>
     <path id="ma9ac422b5b" d="M 0 8.660254 
C 2.296726 8.660254 4.499694 7.747755 6.123724 6.123724 
C 7.747755 4.499694 8.660254 2.296726 8.660254 0 
C 8.660254 -2.296726 7.747755 -4.499694 6.123724 -6.123724 
C 4.499694 -7.747755 2.296726 -8.660254 0 -8.660254 
C -2.296726 -8.660254 -4.499694 -7.747755 -6.123724 -6.123724 
C -7.747755 -4.499694 -8.660254 -2.296726 -8.660254 0 
C -8.660254 2.296726 -7.747755 4.499694 -6.123724 6.123724 
C -4.499694 7.747755 -2.296726 8.660254 0 8.660254 
z
" style="stroke: #1f78b4"/>
    </defs>
    <g clip-path="url(#pea5b55c802)">
     <use xlink:href="#ma9ac422b5b" x="509.137867" y="997.148994" style="fill: #1f78b4; stroke: #1f78b4"/>
     <use xlink:href="#ma9ac422b5b" x="663.783907" y="837.859518" style="fill: #1f78b4; stroke: #1f78b4"/>
     <use xlink:href="#ma9ac422b5b" x="408.481373" y="913.520363" style="fill: #1f78b4; stroke: #1f78b4"/>
     <use xlink:href="#ma9ac422b5b" x="939.695228" y="726.662933" style="fill: #1f78b4; stroke: #1f78b4"/>
     <use xlink:href="#ma9ac422b5b" x="1167.010354" y="388.587562" style="fill: #1f78b4; stroke: #1f78b4"/>
     <use xlink:href="#ma9ac422b5b" x="1032.169925" y="506.235401" style="fill: #1f78b4; stroke: #1f78b4"/>
     <use xlink:href="#ma9ac422b5b" x="124.958678" y="124.958678" style="fill: #1f78b4; stroke: #1f78b4"/>
     <use xlink:href="#ma9ac422b5b" x="1151.759388" y="687.365274" style="fill: #1f78b4; stroke: #1f78b4"/>
     <use xlink:href="#ma9ac422b5b" x="905.57099" y="646.022019" style="fill: #1f78b4; stroke: #1f78b4"/>
     <use xlink:href="#ma9ac422b5b" x="1315.041322" y="1315.041322" style="fill: #1f78b4; stroke: #1f78b4"/>
     <use xlink:href="#ma9ac422b5b" x="1114.551695" y="565.815442" style="fill: #1f78b4; stroke: #1f78b4"/>
    </g>
   </g>
   <g id="text_31">
    <g clip-path="url(#pea5b55c802)">
     <!-- I eat food -->
     <g transform="translate(476.592555 1000.460244) scale(0.12 -0.12)">
      <defs>
       <path id="DejaVuSans-Bold-49" d="M 588 4666 
L 1791 4666 
L 1791 0 
L 588 0 
L 588 4666 
z
" transform="scale(0.015625)"/>
       <path id="DejaVuSans-Bold-20" transform="scale(0.015625)"/>
       <path id="DejaVuSans-Bold-65" d="M 4031 1759 
L 4031 1441 
L 1416 1441 
Q 1456 1047 1700 850 
Q 1944 653 2381 653 
Q 2734 653 3104 758 
Q 3475 863 3866 1075 
L 3866 213 
Q 3469 63 3072 -14 
Q 2675 -91 2278 -91 
Q 1328 -91 801 392 
Q 275 875 275 1747 
Q 275 2603 792 3093 
Q 1309 3584 2216 3584 
Q 3041 3584 3536 3087 
Q 4031 2591 4031 1759 
z
M 2881 2131 
Q 2881 2450 2695 2645 
Q 2509 2841 2209 2841 
Q 1884 2841 1681 2658 
Q 1478 2475 1428 2131 
L 2881 2131 
z
" transform="scale(0.015625)"/>
       <path id="DejaVuSans-Bold-61" d="M 2106 1575 
Q 1756 1575 1579 1456 
Q 1403 1338 1403 1106 
Q 1403 894 1545 773 
Q 1688 653 1941 653 
Q 2256 653 2472 879 
Q 2688 1106 2688 1447 
L 2688 1575 
L 2106 1575 
z
M 3816 1997 
L 3816 0 
L 2688 0 
L 2688 519 
Q 2463 200 2181 54 
Q 1900 -91 1497 -91 
Q 953 -91 614 226 
Q 275 544 275 1050 
Q 275 1666 698 1953 
Q 1122 2241 2028 2241 
L 2688 2241 
L 2688 2328 
Q 2688 2594 2478 2717 
Q 2269 2841 1825 2841 
Q 1466 2841 1156 2769 
Q 847 2697 581 2553 
L 581 3406 
Q 941 3494 1303 3539 
Q 1666 3584 2028 3584 
Q 2975 3584 3395 3211 
Q 3816 2838 3816 1997 
z
" transform="scale(0.015625)"/>
       <path id="DejaVuSans-Bold-74" d="M 1759 4494 
L 1759 3500 
L 2913 3500 
L 2913 2700 
L 1759 2700 
L 1759 1216 
Q 1759 972 1856 886 
Q 1953 800 2241 800 
L 2816 800 
L 2816 0 
L 1856 0 
Q 1194 0 917 276 
Q 641 553 641 1216 
L 641 2700 
L 84 2700 
L 84 3500 
L 641 3500 
L 641 4494 
L 1759 4494 
z
" transform="scale(0.015625)"/>
       <path id="DejaVuSans-Bold-66" d="M 2841 4863 
L 2841 4128 
L 2222 4128 
Q 1984 4128 1890 4042 
Q 1797 3956 1797 3744 
L 1797 3500 
L 2753 3500 
L 2753 2700 
L 1797 2700 
L 1797 0 
L 678 0 
L 678 2700 
L 122 2700 
L 122 3500 
L 678 3500 
L 678 3744 
Q 678 4316 997 4589 
Q 1316 4863 1984 4863 
L 2841 4863 
z
" transform="scale(0.015625)"/>
       <path id="DejaVuSans-Bold-6f" d="M 2203 2784 
Q 1831 2784 1636 2517 
Q 1441 2250 1441 1747 
Q 1441 1244 1636 976 
Q 1831 709 2203 709 
Q 2569 709 2762 976 
Q 2956 1244 2956 1747 
Q 2956 2250 2762 2517 
Q 2569 2784 2203 2784 
z
M 2203 3584 
Q 3106 3584 3614 3096 
Q 4122 2609 4122 1747 
Q 4122 884 3614 396 
Q 3106 -91 2203 -91 
Q 1297 -91 786 396 
Q 275 884 275 1747 
Q 275 2609 786 3096 
Q 1297 3584 2203 3584 
z
" transform="scale(0.015625)"/>
       <path id="DejaVuSans-Bold-64" d="M 2919 2988 
L 2919 4863 
L 4044 4863 
L 4044 0 
L 2919 0 
L 2919 506 
Q 2688 197 2409 53 
Q 2131 -91 1766 -91 
Q 1119 -91 703 423 
Q 288 938 288 1747 
Q 288 2556 703 3070 
Q 1119 3584 1766 3584 
Q 2128 3584 2408 3439 
Q 2688 3294 2919 2988 
z
M 2181 722 
Q 2541 722 2730 984 
Q 2919 1247 2919 1747 
Q 2919 2247 2730 2509 
Q 2541 2772 2181 2772 
Q 1825 2772 1636 2509 
Q 1447 2247 1447 1747 
Q 1447 1247 1636 984 
Q 1825 722 2181 722 
z
" transform="scale(0.015625)"/>
      </defs>
      <use xlink:href="#DejaVuSans-Bold-49"/>
      <use xlink:href="#DejaVuSans-Bold-20" x="37.207031"/>
      <use xlink:href="#DejaVuSans-Bold-65" x="72.021484"/>
      <use xlink:href="#DejaVuSans-Bold-61" x="139.84375"/>
      <use xlink:href="#DejaVuSans-Bold-74" x="207.324219"/>
      <use xlink:href="#DejaVuSans-Bold-20" x="255.126953"/>
      <use xlink:href="#DejaVuSans-Bold-66" x="289.941406"/>
      <use xlink:href="#DejaVuSans-Bold-6f" x="333.447266"/>
      <use xlink:href="#DejaVuSans-Bold-6f" x="402.148438"/>
      <use xlink:href="#DejaVuSans-Bold-64" x="470.849609"/>
     </g>
    </g>
   </g>
   <g id="text_32">
    <g clip-path="url(#pea5b55c802)">
     <!-- I am a human. -->
     <g transform="translate(615.541095 841.170768) scale(0.12 -0.12)">
      <defs>
       <path id="DejaVuSans-Bold-6d" d="M 3781 2919 
Q 3994 3244 4286 3414 
Q 4578 3584 4928 3584 
Q 5531 3584 5847 3212 
Q 6163 2841 6163 2131 
L 6163 0 
L 5038 0 
L 5038 1825 
Q 5041 1866 5042 1909 
Q 5044 1953 5044 2034 
Q 5044 2406 4934 2573 
Q 4825 2741 4581 2741 
Q 4263 2741 4089 2478 
Q 3916 2216 3909 1719 
L 3909 0 
L 2784 0 
L 2784 1825 
Q 2784 2406 2684 2573 
Q 2584 2741 2328 2741 
Q 2006 2741 1831 2477 
Q 1656 2213 1656 1722 
L 1656 0 
L 531 0 
L 531 3500 
L 1656 3500 
L 1656 2988 
Q 1863 3284 2130 3434 
Q 2397 3584 2719 3584 
Q 3081 3584 3359 3409 
Q 3638 3234 3781 2919 
z
" transform="scale(0.015625)"/>
       <path id="DejaVuSans-Bold-68" d="M 4056 2131 
L 4056 0 
L 2931 0 
L 2931 347 
L 2931 1625 
Q 2931 2084 2911 2256 
Q 2891 2428 2841 2509 
Q 2775 2619 2662 2680 
Q 2550 2741 2406 2741 
Q 2056 2741 1856 2470 
Q 1656 2200 1656 1722 
L 1656 0 
L 538 0 
L 538 4863 
L 1656 4863 
L 1656 2988 
Q 1909 3294 2193 3439 
Q 2478 3584 2822 3584 
Q 3428 3584 3742 3212 
Q 4056 2841 4056 2131 
z
" transform="scale(0.015625)"/>
       <path id="DejaVuSans-Bold-75" d="M 500 1363 
L 500 3500 
L 1625 3500 
L 1625 3150 
Q 1625 2866 1622 2436 
Q 1619 2006 1619 1863 
Q 1619 1441 1641 1255 
Q 1663 1069 1716 984 
Q 1784 875 1895 815 
Q 2006 756 2150 756 
Q 2500 756 2700 1025 
Q 2900 1294 2900 1772 
L 2900 3500 
L 4019 3500 
L 4019 0 
L 2900 0 
L 2900 506 
Q 2647 200 2364 54 
Q 2081 -91 1741 -91 
Q 1134 -91 817 281 
Q 500 653 500 1363 
z
" transform="scale(0.015625)"/>
       <path id="DejaVuSans-Bold-6e" d="M 4056 2131 
L 4056 0 
L 2931 0 
L 2931 347 
L 2931 1631 
Q 2931 2084 2911 2256 
Q 2891 2428 2841 2509 
Q 2775 2619 2662 2680 
Q 2550 2741 2406 2741 
Q 2056 2741 1856 2470 
Q 1656 2200 1656 1722 
L 1656 0 
L 538 0 
L 538 3500 
L 1656 3500 
L 1656 2988 
Q 1909 3294 2193 3439 
Q 2478 3584 2822 3584 
Q 3428 3584 3742 3212 
Q 4056 2841 4056 2131 
z
" transform="scale(0.015625)"/>
       <path id="DejaVuSans-Bold-2e" d="M 653 1209 
L 1778 1209 
L 1778 0 
L 653 0 
L 653 1209 
z
" transform="scale(0.015625)"/>
      </defs>
      <use xlink:href="#DejaVuSans-Bold-49"/>
      <use xlink:href="#DejaVuSans-Bold-20" x="37.207031"/>
      <use xlink:href="#DejaVuSans-Bold-61" x="72.021484"/>
      <use xlink:href="#DejaVuSans-Bold-6d" x="139.501953"/>
      <use xlink:href="#DejaVuSans-Bold-20" x="243.701172"/>
      <use xlink:href="#DejaVuSans-Bold-61" x="278.515625"/>
      <use xlink:href="#DejaVuSans-Bold-20" x="345.996094"/>
      <use xlink:href="#DejaVuSans-Bold-68" x="380.810547"/>
      <use xlink:href="#DejaVuSans-Bold-75" x="452.001953"/>
      <use xlink:href="#DejaVuSans-Bold-6d" x="523.193359"/>
      <use xlink:href="#DejaVuSans-Bold-61" x="627.392578"/>
      <use xlink:href="#DejaVuSans-Bold-6e" x="694.873047"/>
      <use xlink:href="#DejaVuSans-Bold-2e" x="766.064453"/>
     </g>
    </g>
   </g>
   <g id="text_33">
    <g clip-path="url(#pea5b55c802)">
     <!-- I watch movies -->
     <g transform="translate(357.800123 916.831613) scale(0.12 -0.12)">
      <defs>
       <path id="DejaVuSans-Bold-77" d="M 225 3500 
L 1313 3500 
L 1900 1088 
L 2491 3500 
L 3425 3500 
L 4013 1113 
L 4603 3500 
L 5691 3500 
L 4769 0 
L 3547 0 
L 2956 2406 
L 2369 0 
L 1147 0 
L 225 3500 
z
" transform="scale(0.015625)"/>
       <path id="DejaVuSans-Bold-63" d="M 3366 3391 
L 3366 2478 
Q 3138 2634 2908 2709 
Q 2678 2784 2431 2784 
Q 1963 2784 1702 2511 
Q 1441 2238 1441 1747 
Q 1441 1256 1702 982 
Q 1963 709 2431 709 
Q 2694 709 2930 787 
Q 3166 866 3366 1019 
L 3366 103 
Q 3103 6 2833 -42 
Q 2563 -91 2291 -91 
Q 1344 -91 809 395 
Q 275 881 275 1747 
Q 275 2613 809 3098 
Q 1344 3584 2291 3584 
Q 2566 3584 2833 3536 
Q 3100 3488 3366 3391 
z
" transform="scale(0.015625)"/>
       <path id="DejaVuSans-Bold-76" d="M 97 3500 
L 1216 3500 
L 2088 1081 
L 2956 3500 
L 4078 3500 
L 2700 0 
L 1472 0 
L 97 3500 
z
" transform="scale(0.015625)"/>
       <path id="DejaVuSans-Bold-69" d="M 538 3500 
L 1656 3500 
L 1656 0 
L 538 0 
L 538 3500 
z
M 538 4863 
L 1656 4863 
L 1656 3950 
L 538 3950 
L 538 4863 
z
" transform="scale(0.015625)"/>
       <path id="DejaVuSans-Bold-73" d="M 3272 3391 
L 3272 2541 
Q 2913 2691 2578 2766 
Q 2244 2841 1947 2841 
Q 1628 2841 1473 2761 
Q 1319 2681 1319 2516 
Q 1319 2381 1436 2309 
Q 1553 2238 1856 2203 
L 2053 2175 
Q 2913 2066 3209 1816 
Q 3506 1566 3506 1031 
Q 3506 472 3093 190 
Q 2681 -91 1863 -91 
Q 1516 -91 1145 -36 
Q 775 19 384 128 
L 384 978 
Q 719 816 1070 734 
Q 1422 653 1784 653 
Q 2113 653 2278 743 
Q 2444 834 2444 1013 
Q 2444 1163 2330 1236 
Q 2216 1309 1875 1350 
L 1678 1375 
Q 931 1469 631 1722 
Q 331 1975 331 2491 
Q 331 3047 712 3315 
Q 1094 3584 1881 3584 
Q 2191 3584 2531 3537 
Q 2872 3491 3272 3391 
z
" transform="scale(0.015625)"/>
      </defs>
      <use xlink:href="#DejaVuSans-Bold-49"/>
      <use xlink:href="#DejaVuSans-Bold-20" x="37.207031"/>
      <use xlink:href="#DejaVuSans-Bold-77" x="72.021484"/>
      <use xlink:href="#DejaVuSans-Bold-61" x="164.404297"/>
      <use xlink:href="#DejaVuSans-Bold-74" x="231.884766"/>
      <use xlink:href="#DejaVuSans-Bold-63" x="279.6875"/>
      <use xlink:href="#DejaVuSans-Bold-68" x="338.964844"/>
      <use xlink:href="#DejaVuSans-Bold-20" x="410.15625"/>
      <use xlink:href="#DejaVuSans-Bold-6d" x="444.970703"/>
      <use xlink:href="#DejaVuSans-Bold-6f" x="549.169922"/>
      <use xlink:href="#DejaVuSans-Bold-76" x="617.871094"/>
      <use xlink:href="#DejaVuSans-Bold-69" x="683.056641"/>
      <use xlink:href="#DejaVuSans-Bold-65" x="717.333984"/>
      <use xlink:href="#DejaVuSans-Bold-73" x="785.15625"/>
     </g>
    </g>
   </g>
   <g id="text_34">
    <g clip-path="url(#pea5b55c802)">
     <!-- Earth is a planet -->
     <g transform="translate(883.897103 729.974183) scale(0.12 -0.12)">
      <defs>
       <path id="DejaVuSans-Bold-45" d="M 588 4666 
L 3834 4666 
L 3834 3756 
L 1791 3756 
L 1791 2888 
L 3713 2888 
L 3713 1978 
L 1791 1978 
L 1791 909 
L 3903 909 
L 3903 0 
L 588 0 
L 588 4666 
z
" transform="scale(0.015625)"/>
       <path id="DejaVuSans-Bold-72" d="M 3138 2547 
Q 2991 2616 2845 2648 
Q 2700 2681 2553 2681 
Q 2122 2681 1889 2404 
Q 1656 2128 1656 1613 
L 1656 0 
L 538 0 
L 538 3500 
L 1656 3500 
L 1656 2925 
Q 1872 3269 2151 3426 
Q 2431 3584 2822 3584 
Q 2878 3584 2943 3579 
Q 3009 3575 3134 3559 
L 3138 2547 
z
" transform="scale(0.015625)"/>
       <path id="DejaVuSans-Bold-70" d="M 1656 506 
L 1656 -1331 
L 538 -1331 
L 538 3500 
L 1656 3500 
L 1656 2988 
Q 1888 3294 2169 3439 
Q 2450 3584 2816 3584 
Q 3463 3584 3878 3070 
Q 4294 2556 4294 1747 
Q 4294 938 3878 423 
Q 3463 -91 2816 -91 
Q 2450 -91 2169 54 
Q 1888 200 1656 506 
z
M 2400 2772 
Q 2041 2772 1848 2508 
Q 1656 2244 1656 1747 
Q 1656 1250 1848 986 
Q 2041 722 2400 722 
Q 2759 722 2948 984 
Q 3138 1247 3138 1747 
Q 3138 2247 2948 2509 
Q 2759 2772 2400 2772 
z
" transform="scale(0.015625)"/>
       <path id="DejaVuSans-Bold-6c" d="M 538 4863 
L 1656 4863 
L 1656 0 
L 538 0 
L 538 4863 
z
" transform="scale(0.015625)"/>
      </defs>
      <use xlink:href="#DejaVuSans-Bold-45"/>
      <use xlink:href="#DejaVuSans-Bold-61" x="68.310547"/>
      <use xlink:href="#DejaVuSans-Bold-72" x="135.791016"/>
      <use xlink:href="#DejaVuSans-Bold-74" x="185.107422"/>
      <use xlink:href="#DejaVuSans-Bold-68" x="232.910156"/>
      <use xlink:href="#DejaVuSans-Bold-20" x="304.101562"/>
      <use xlink:href="#DejaVuSans-Bold-69" x="338.916016"/>
      <use xlink:href="#DejaVuSans-Bold-73" x="373.193359"/>
      <use xlink:href="#DejaVuSans-Bold-20" x="432.714844"/>
      <use xlink:href="#DejaVuSans-Bold-61" x="467.529297"/>
      <use xlink:href="#DejaVuSans-Bold-20" x="535.009766"/>
      <use xlink:href="#DejaVuSans-Bold-70" x="569.824219"/>
      <use xlink:href="#DejaVuSans-Bold-6c" x="641.40625"/>
      <use xlink:href="#DejaVuSans-Bold-61" x="675.683594"/>
      <use xlink:href="#DejaVuSans-Bold-6e" x="743.164062"/>
      <use xlink:href="#DejaVuSans-Bold-65" x="814.355469"/>
      <use xlink:href="#DejaVuSans-Bold-74" x="882.177734"/>
     </g>
    </g>
   </g>
   <g id="text_35">
    <g clip-path="url(#pea5b55c802)">
     <!-- Thermal paste reduces the heat on the processor -->
     <g transform="translate(999.700354 391.898812) scale(0.12 -0.12)">
      <defs>
       <path id="DejaVuSans-Bold-54" d="M 31 4666 
L 4331 4666 
L 4331 3756 
L 2784 3756 
L 2784 0 
L 1581 0 
L 1581 3756 
L 31 3756 
L 31 4666 
z
" transform="scale(0.015625)"/>
      </defs>
      <use xlink:href="#DejaVuSans-Bold-54"/>
      <use xlink:href="#DejaVuSans-Bold-68" x="68.212891"/>
      <use xlink:href="#DejaVuSans-Bold-65" x="139.404297"/>
      <use xlink:href="#DejaVuSans-Bold-72" x="207.226562"/>
      <use xlink:href="#DejaVuSans-Bold-6d" x="256.542969"/>
      <use xlink:href="#DejaVuSans-Bold-61" x="360.742188"/>
      <use xlink:href="#DejaVuSans-Bold-6c" x="428.222656"/>
      <use xlink:href="#DejaVuSans-Bold-20" x="462.5"/>
      <use xlink:href="#DejaVuSans-Bold-70" x="497.314453"/>
      <use xlink:href="#DejaVuSans-Bold-61" x="568.896484"/>
      <use xlink:href="#DejaVuSans-Bold-73" x="636.376953"/>
      <use xlink:href="#DejaVuSans-Bold-74" x="695.898438"/>
      <use xlink:href="#DejaVuSans-Bold-65" x="743.701172"/>
      <use xlink:href="#DejaVuSans-Bold-20" x="811.523438"/>
      <use xlink:href="#DejaVuSans-Bold-72" x="846.337891"/>
      <use xlink:href="#DejaVuSans-Bold-65" x="895.654297"/>
      <use xlink:href="#DejaVuSans-Bold-64" x="963.476562"/>
      <use xlink:href="#DejaVuSans-Bold-75" x="1035.058594"/>
      <use xlink:href="#DejaVuSans-Bold-63" x="1106.25"/>
      <use xlink:href="#DejaVuSans-Bold-65" x="1165.527344"/>
      <use xlink:href="#DejaVuSans-Bold-73" x="1233.349609"/>
      <use xlink:href="#DejaVuSans-Bold-20" x="1292.871094"/>
      <use xlink:href="#DejaVuSans-Bold-74" x="1327.685547"/>
      <use xlink:href="#DejaVuSans-Bold-68" x="1375.488281"/>
      <use xlink:href="#DejaVuSans-Bold-65" x="1446.679688"/>
      <use xlink:href="#DejaVuSans-Bold-20" x="1514.501953"/>
      <use xlink:href="#DejaVuSans-Bold-68" x="1549.316406"/>
      <use xlink:href="#DejaVuSans-Bold-65" x="1620.507812"/>
      <use xlink:href="#DejaVuSans-Bold-61" x="1688.330078"/>
      <use xlink:href="#DejaVuSans-Bold-74" x="1755.810547"/>
      <use xlink:href="#DejaVuSans-Bold-20" x="1803.613281"/>
      <use xlink:href="#DejaVuSans-Bold-6f" x="1838.427734"/>
      <use xlink:href="#DejaVuSans-Bold-6e" x="1907.128906"/>
      <use xlink:href="#DejaVuSans-Bold-20" x="1978.320312"/>
      <use xlink:href="#DejaVuSans-Bold-74" x="2013.134766"/>
      <use xlink:href="#DejaVuSans-Bold-68" x="2060.9375"/>
      <use xlink:href="#DejaVuSans-Bold-65" x="2132.128906"/>
      <use xlink:href="#DejaVuSans-Bold-20" x="2199.951172"/>
      <use xlink:href="#DejaVuSans-Bold-70" x="2234.765625"/>
      <use xlink:href="#DejaVuSans-Bold-72" x="2306.347656"/>
      <use xlink:href="#DejaVuSans-Bold-6f" x="2355.664062"/>
      <use xlink:href="#DejaVuSans-Bold-63" x="2424.365234"/>
      <use xlink:href="#DejaVuSans-Bold-65" x="2483.642578"/>
      <use xlink:href="#DejaVuSans-Bold-73" x="2551.464844"/>
      <use xlink:href="#DejaVuSans-Bold-73" x="2610.986328"/>
      <use xlink:href="#DejaVuSans-Bold-6f" x="2670.507812"/>
      <use xlink:href="#DejaVuSans-Bold-72" x="2739.208984"/>
     </g>
    </g>
   </g>
   <g id="text_36">
    <g clip-path="url(#pea5b55c802)">
     <!-- The autonomy of the human bring is complex to study -->
     <g transform="translate(848.381488 509.499776) scale(0.12 -0.12)">
      <defs>
       <path id="DejaVuSans-Bold-79" d="M 78 3500 
L 1197 3500 
L 2138 1125 
L 2938 3500 
L 4056 3500 
L 2584 -331 
Q 2363 -916 2067 -1148 
Q 1772 -1381 1288 -1381 
L 641 -1381 
L 641 -647 
L 991 -647 
Q 1275 -647 1404 -556 
Q 1534 -466 1606 -231 
L 1638 -134 
L 78 3500 
z
" transform="scale(0.015625)"/>
       <path id="DejaVuSans-Bold-62" d="M 2400 722 
Q 2759 722 2948 984 
Q 3138 1247 3138 1747 
Q 3138 2247 2948 2509 
Q 2759 2772 2400 2772 
Q 2041 2772 1848 2508 
Q 1656 2244 1656 1747 
Q 1656 1250 1848 986 
Q 2041 722 2400 722 
z
M 1656 2988 
Q 1888 3294 2169 3439 
Q 2450 3584 2816 3584 
Q 3463 3584 3878 3070 
Q 4294 2556 4294 1747 
Q 4294 938 3878 423 
Q 3463 -91 2816 -91 
Q 2450 -91 2169 54 
Q 1888 200 1656 506 
L 1656 0 
L 538 0 
L 538 4863 
L 1656 4863 
L 1656 2988 
z
" transform="scale(0.015625)"/>
       <path id="DejaVuSans-Bold-67" d="M 2919 594 
Q 2688 288 2409 144 
Q 2131 0 1766 0 
Q 1125 0 706 504 
Q 288 1009 288 1791 
Q 288 2575 706 3076 
Q 1125 3578 1766 3578 
Q 2131 3578 2409 3434 
Q 2688 3291 2919 2981 
L 2919 3500 
L 4044 3500 
L 4044 353 
Q 4044 -491 3511 -936 
Q 2978 -1381 1966 -1381 
Q 1638 -1381 1331 -1331 
Q 1025 -1281 716 -1178 
L 716 -306 
Q 1009 -475 1290 -558 
Q 1572 -641 1856 -641 
Q 2406 -641 2662 -400 
Q 2919 -159 2919 353 
L 2919 594 
z
M 2181 2772 
Q 1834 2772 1640 2515 
Q 1447 2259 1447 1791 
Q 1447 1309 1634 1061 
Q 1822 813 2181 813 
Q 2531 813 2725 1069 
Q 2919 1325 2919 1791 
Q 2919 2259 2725 2515 
Q 2531 2772 2181 2772 
z
" transform="scale(0.015625)"/>
       <path id="DejaVuSans-Bold-78" d="M 1422 1791 
L 159 3500 
L 1344 3500 
L 2059 2463 
L 2784 3500 
L 3969 3500 
L 2706 1797 
L 4031 0 
L 2847 0 
L 2059 1106 
L 1281 0 
L 97 0 
L 1422 1791 
z
" transform="scale(0.015625)"/>
      </defs>
      <use xlink:href="#DejaVuSans-Bold-54"/>
      <use xlink:href="#DejaVuSans-Bold-68" x="68.212891"/>
      <use xlink:href="#DejaVuSans-Bold-65" x="139.404297"/>
      <use xlink:href="#DejaVuSans-Bold-20" x="207.226562"/>
      <use xlink:href="#DejaVuSans-Bold-61" x="242.041016"/>
      <use xlink:href="#DejaVuSans-Bold-75" x="309.521484"/>
      <use xlink:href="#DejaVuSans-Bold-74" x="380.712891"/>
      <use xlink:href="#DejaVuSans-Bold-6f" x="428.515625"/>
      <use xlink:href="#DejaVuSans-Bold-6e" x="497.216797"/>
      <use xlink:href="#DejaVuSans-Bold-6f" x="568.408203"/>
      <use xlink:href="#DejaVuSans-Bold-6d" x="637.109375"/>
      <use xlink:href="#DejaVuSans-Bold-79" x="741.308594"/>
      <use xlink:href="#DejaVuSans-Bold-20" x="806.494141"/>
      <use xlink:href="#DejaVuSans-Bold-6f" x="841.308594"/>
      <use xlink:href="#DejaVuSans-Bold-66" x="910.009766"/>
      <use xlink:href="#DejaVuSans-Bold-20" x="953.515625"/>
      <use xlink:href="#DejaVuSans-Bold-74" x="988.330078"/>
      <use xlink:href="#DejaVuSans-Bold-68" x="1036.132812"/>
      <use xlink:href="#DejaVuSans-Bold-65" x="1107.324219"/>
      <use xlink:href="#DejaVuSans-Bold-20" x="1175.146484"/>
      <use xlink:href="#DejaVuSans-Bold-68" x="1209.960938"/>
      <use xlink:href="#DejaVuSans-Bold-75" x="1281.152344"/>
      <use xlink:href="#DejaVuSans-Bold-6d" x="1352.34375"/>
      <use xlink:href="#DejaVuSans-Bold-61" x="1456.542969"/>
      <use xlink:href="#DejaVuSans-Bold-6e" x="1524.023438"/>
      <use xlink:href="#DejaVuSans-Bold-20" x="1595.214844"/>
      <use xlink:href="#DejaVuSans-Bold-62" x="1630.029297"/>
      <use xlink:href="#DejaVuSans-Bold-72" x="1701.611328"/>
      <use xlink:href="#DejaVuSans-Bold-69" x="1750.927734"/>
      <use xlink:href="#DejaVuSans-Bold-6e" x="1785.205078"/>
      <use xlink:href="#DejaVuSans-Bold-67" x="1856.396484"/>
      <use xlink:href="#DejaVuSans-Bold-20" x="1927.978516"/>
      <use xlink:href="#DejaVuSans-Bold-69" x="1962.792969"/>
      <use xlink:href="#DejaVuSans-Bold-73" x="1997.070312"/>
      <use xlink:href="#DejaVuSans-Bold-20" x="2056.591797"/>
      <use xlink:href="#DejaVuSans-Bold-63" x="2091.40625"/>
      <use xlink:href="#DejaVuSans-Bold-6f" x="2150.683594"/>
      <use xlink:href="#DejaVuSans-Bold-6d" x="2219.384766"/>
      <use xlink:href="#DejaVuSans-Bold-70" x="2323.583984"/>
      <use xlink:href="#DejaVuSans-Bold-6c" x="2395.166016"/>
      <use xlink:href="#DejaVuSans-Bold-65" x="2429.443359"/>
      <use xlink:href="#DejaVuSans-Bold-78" x="2497.265625"/>
      <use xlink:href="#DejaVuSans-Bold-20" x="2561.767578"/>
      <use xlink:href="#DejaVuSans-Bold-74" x="2596.582031"/>
      <use xlink:href="#DejaVuSans-Bold-6f" x="2644.384766"/>
      <use xlink:href="#DejaVuSans-Bold-20" x="2713.085938"/>
      <use xlink:href="#DejaVuSans-Bold-73" x="2747.900391"/>
      <use xlink:href="#DejaVuSans-Bold-74" x="2807.421875"/>
      <use xlink:href="#DejaVuSans-Bold-75" x="2855.224609"/>
      <use xlink:href="#DejaVuSans-Bold-64" x="2926.416016"/>
      <use xlink:href="#DejaVuSans-Bold-79" x="2997.998047"/>
     </g>
    </g>
   </g>
   <g id="text_37">
    <g clip-path="url(#pea5b55c802)">
     <!-- India got independence in 1947 -->
     <g transform="translate(17.79774 128.223053) scale(0.12 -0.12)">
      <defs>
       <path id="DejaVuSans-Bold-31" d="M 750 831 
L 1813 831 
L 1813 3847 
L 722 3622 
L 722 4441 
L 1806 4666 
L 2950 4666 
L 2950 831 
L 4013 831 
L 4013 0 
L 750 0 
L 750 831 
z
" transform="scale(0.015625)"/>
       <path id="DejaVuSans-Bold-39" d="M 641 103 
L 641 966 
Q 928 831 1190 764 
Q 1453 697 1709 697 
Q 2247 697 2547 995 
Q 2847 1294 2900 1881 
Q 2688 1725 2447 1647 
Q 2206 1569 1925 1569 
Q 1209 1569 770 1986 
Q 331 2403 331 3084 
Q 331 3838 820 4291 
Q 1309 4744 2131 4744 
Q 3044 4744 3544 4128 
Q 4044 3513 4044 2388 
Q 4044 1231 3459 570 
Q 2875 -91 1856 -91 
Q 1528 -91 1228 -42 
Q 928 6 641 103 
z
M 2125 2350 
Q 2441 2350 2600 2554 
Q 2759 2759 2759 3169 
Q 2759 3575 2600 3781 
Q 2441 3988 2125 3988 
Q 1809 3988 1650 3781 
Q 1491 3575 1491 3169 
Q 1491 2759 1650 2554 
Q 1809 2350 2125 2350 
z
" transform="scale(0.015625)"/>
       <path id="DejaVuSans-Bold-34" d="M 2356 3675 
L 1038 1722 
L 2356 1722 
L 2356 3675 
z
M 2156 4666 
L 3494 4666 
L 3494 1722 
L 4159 1722 
L 4159 850 
L 3494 850 
L 3494 0 
L 2356 0 
L 2356 850 
L 288 850 
L 288 1881 
L 2156 4666 
z
" transform="scale(0.015625)"/>
       <path id="DejaVuSans-Bold-37" d="M 428 4666 
L 3944 4666 
L 3944 3988 
L 2125 0 
L 953 0 
L 2675 3781 
L 428 3781 
L 428 4666 
z
" transform="scale(0.015625)"/>
      </defs>
      <use xlink:href="#DejaVuSans-Bold-49"/>
      <use xlink:href="#DejaVuSans-Bold-6e" x="37.207031"/>
      <use xlink:href="#DejaVuSans-Bold-64" x="108.398438"/>
      <use xlink:href="#DejaVuSans-Bold-69" x="179.980469"/>
      <use xlink:href="#DejaVuSans-Bold-61" x="214.257812"/>
      <use xlink:href="#DejaVuSans-Bold-20" x="281.738281"/>
      <use xlink:href="#DejaVuSans-Bold-67" x="316.552734"/>
      <use xlink:href="#DejaVuSans-Bold-6f" x="388.134766"/>
      <use xlink:href="#DejaVuSans-Bold-74" x="456.835938"/>
      <use xlink:href="#DejaVuSans-Bold-20" x="504.638672"/>
      <use xlink:href="#DejaVuSans-Bold-69" x="539.453125"/>
      <use xlink:href="#DejaVuSans-Bold-6e" x="573.730469"/>
      <use xlink:href="#DejaVuSans-Bold-64" x="644.921875"/>
      <use xlink:href="#DejaVuSans-Bold-65" x="716.503906"/>
      <use xlink:href="#DejaVuSans-Bold-70" x="784.326172"/>
      <use xlink:href="#DejaVuSans-Bold-65" x="855.908203"/>
      <use xlink:href="#DejaVuSans-Bold-6e" x="923.730469"/>
      <use xlink:href="#DejaVuSans-Bold-64" x="994.921875"/>
      <use xlink:href="#DejaVuSans-Bold-65" x="1066.503906"/>
      <use xlink:href="#DejaVuSans-Bold-6e" x="1134.326172"/>
      <use xlink:href="#DejaVuSans-Bold-63" x="1205.517578"/>
      <use xlink:href="#DejaVuSans-Bold-65" x="1264.794922"/>
      <use xlink:href="#DejaVuSans-Bold-20" x="1332.617188"/>
      <use xlink:href="#DejaVuSans-Bold-69" x="1367.431641"/>
      <use xlink:href="#DejaVuSans-Bold-6e" x="1401.708984"/>
      <use xlink:href="#DejaVuSans-Bold-20" x="1472.900391"/>
      <use xlink:href="#DejaVuSans-Bold-31" x="1507.714844"/>
      <use xlink:href="#DejaVuSans-Bold-39" x="1577.294922"/>
      <use xlink:href="#DejaVuSans-Bold-34" x="1646.875"/>
      <use xlink:href="#DejaVuSans-Bold-37" x="1716.455078"/>
     </g>
    </g>
   </g>
   <g id="text_38">
    <g clip-path="url(#pea5b55c802)">
     <!-- Dudu is an extinct species -->
     <g transform="translate(1062.888138 690.676524) scale(0.12 -0.12)">
      <defs>
       <path id="DejaVuSans-Bold-44" d="M 1791 3756 
L 1791 909 
L 2222 909 
Q 2959 909 3348 1275 
Q 3738 1641 3738 2338 
Q 3738 3031 3350 3393 
Q 2963 3756 2222 3756 
L 1791 3756 
z
M 588 4666 
L 1856 4666 
Q 2919 4666 3439 4514 
Q 3959 4363 4331 4000 
Q 4659 3684 4818 3271 
Q 4978 2859 4978 2338 
Q 4978 1809 4818 1395 
Q 4659 981 4331 666 
Q 3956 303 3431 151 
Q 2906 0 1856 0 
L 588 0 
L 588 4666 
z
" transform="scale(0.015625)"/>
      </defs>
      <use xlink:href="#DejaVuSans-Bold-44"/>
      <use xlink:href="#DejaVuSans-Bold-75" x="83.007812"/>
      <use xlink:href="#DejaVuSans-Bold-64" x="154.199219"/>
      <use xlink:href="#DejaVuSans-Bold-75" x="225.78125"/>
      <use xlink:href="#DejaVuSans-Bold-20" x="296.972656"/>
      <use xlink:href="#DejaVuSans-Bold-69" x="331.787109"/>
      <use xlink:href="#DejaVuSans-Bold-73" x="366.064453"/>
      <use xlink:href="#DejaVuSans-Bold-20" x="425.585938"/>
      <use xlink:href="#DejaVuSans-Bold-61" x="460.400391"/>
      <use xlink:href="#DejaVuSans-Bold-6e" x="527.880859"/>
      <use xlink:href="#DejaVuSans-Bold-20" x="599.072266"/>
      <use xlink:href="#DejaVuSans-Bold-65" x="633.886719"/>
      <use xlink:href="#DejaVuSans-Bold-78" x="701.708984"/>
      <use xlink:href="#DejaVuSans-Bold-74" x="766.210938"/>
      <use xlink:href="#DejaVuSans-Bold-69" x="814.013672"/>
      <use xlink:href="#DejaVuSans-Bold-6e" x="848.291016"/>
      <use xlink:href="#DejaVuSans-Bold-63" x="919.482422"/>
      <use xlink:href="#DejaVuSans-Bold-74" x="978.759766"/>
      <use xlink:href="#DejaVuSans-Bold-20" x="1026.5625"/>
      <use xlink:href="#DejaVuSans-Bold-73" x="1061.376953"/>
      <use xlink:href="#DejaVuSans-Bold-70" x="1120.898438"/>
      <use xlink:href="#DejaVuSans-Bold-65" x="1192.480469"/>
      <use xlink:href="#DejaVuSans-Bold-63" x="1260.302734"/>
      <use xlink:href="#DejaVuSans-Bold-69" x="1319.580078"/>
      <use xlink:href="#DejaVuSans-Bold-65" x="1353.857422"/>
      <use xlink:href="#DejaVuSans-Bold-73" x="1421.679688"/>
     </g>
    </g>
   </g>
   <g id="text_39">
    <g clip-path="url(#pea5b55c802)">
     <!-- light is a form of energy -->
     <g transform="translate(823.65224 649.286394) scale(0.12 -0.12)">
      <use xlink:href="#DejaVuSans-Bold-6c"/>
      <use xlink:href="#DejaVuSans-Bold-69" x="34.277344"/>
      <use xlink:href="#DejaVuSans-Bold-67" x="68.554688"/>
      <use xlink:href="#DejaVuSans-Bold-68" x="140.136719"/>
      <use xlink:href="#DejaVuSans-Bold-74" x="211.328125"/>
      <use xlink:href="#DejaVuSans-Bold-20" x="259.130859"/>
      <use xlink:href="#DejaVuSans-Bold-69" x="293.945312"/>
      <use xlink:href="#DejaVuSans-Bold-73" x="328.222656"/>
      <use xlink:href="#DejaVuSans-Bold-20" x="387.744141"/>
      <use xlink:href="#DejaVuSans-Bold-61" x="422.558594"/>
      <use xlink:href="#DejaVuSans-Bold-20" x="490.039062"/>
      <use xlink:href="#DejaVuSans-Bold-66" x="524.853516"/>
      <use xlink:href="#DejaVuSans-Bold-6f" x="568.359375"/>
      <use xlink:href="#DejaVuSans-Bold-72" x="637.060547"/>
      <use xlink:href="#DejaVuSans-Bold-6d" x="686.376953"/>
      <use xlink:href="#DejaVuSans-Bold-20" x="790.576172"/>
      <use xlink:href="#DejaVuSans-Bold-6f" x="825.390625"/>
      <use xlink:href="#DejaVuSans-Bold-66" x="894.091797"/>
      <use xlink:href="#DejaVuSans-Bold-20" x="937.597656"/>
      <use xlink:href="#DejaVuSans-Bold-65" x="972.412109"/>
      <use xlink:href="#DejaVuSans-Bold-6e" x="1040.234375"/>
      <use xlink:href="#DejaVuSans-Bold-65" x="1111.425781"/>
      <use xlink:href="#DejaVuSans-Bold-72" x="1179.248047"/>
      <use xlink:href="#DejaVuSans-Bold-67" x="1228.564453"/>
      <use xlink:href="#DejaVuSans-Bold-79" x="1300.146484"/>
     </g>
    </g>
   </g>
   <g id="text_40">
    <g clip-path="url(#pea5b55c802)">
     <!-- trignometry deals with triangles -->
     <g transform="translate(1205.16726 1318.305697) scale(0.12 -0.12)">
      <use xlink:href="#DejaVuSans-Bold-74"/>
      <use xlink:href="#DejaVuSans-Bold-72" x="47.802734"/>
      <use xlink:href="#DejaVuSans-Bold-69" x="97.119141"/>
      <use xlink:href="#DejaVuSans-Bold-67" x="131.396484"/>
      <use xlink:href="#DejaVuSans-Bold-6e" x="202.978516"/>
      <use xlink:href="#DejaVuSans-Bold-6f" x="274.169922"/>
      <use xlink:href="#DejaVuSans-Bold-6d" x="342.871094"/>
      <use xlink:href="#DejaVuSans-Bold-65" x="447.070312"/>
      <use xlink:href="#DejaVuSans-Bold-74" x="514.892578"/>
      <use xlink:href="#DejaVuSans-Bold-72" x="562.695312"/>
      <use xlink:href="#DejaVuSans-Bold-79" x="612.011719"/>
      <use xlink:href="#DejaVuSans-Bold-20" x="677.197266"/>
      <use xlink:href="#DejaVuSans-Bold-64" x="712.011719"/>
      <use xlink:href="#DejaVuSans-Bold-65" x="783.59375"/>
      <use xlink:href="#DejaVuSans-Bold-61" x="851.416016"/>
      <use xlink:href="#DejaVuSans-Bold-6c" x="918.896484"/>
      <use xlink:href="#DejaVuSans-Bold-73" x="953.173828"/>
      <use xlink:href="#DejaVuSans-Bold-20" x="1012.695312"/>
      <use xlink:href="#DejaVuSans-Bold-77" x="1047.509766"/>
      <use xlink:href="#DejaVuSans-Bold-69" x="1139.892578"/>
      <use xlink:href="#DejaVuSans-Bold-74" x="1174.169922"/>
      <use xlink:href="#DejaVuSans-Bold-68" x="1221.972656"/>
      <use xlink:href="#DejaVuSans-Bold-20" x="1293.164062"/>
      <use xlink:href="#DejaVuSans-Bold-74" x="1327.978516"/>
      <use xlink:href="#DejaVuSans-Bold-72" x="1375.78125"/>
      <use xlink:href="#DejaVuSans-Bold-69" x="1425.097656"/>
      <use xlink:href="#DejaVuSans-Bold-61" x="1459.375"/>
      <use xlink:href="#DejaVuSans-Bold-6e" x="1526.855469"/>
      <use xlink:href="#DejaVuSans-Bold-67" x="1598.046875"/>
      <use xlink:href="#DejaVuSans-Bold-6c" x="1669.628906"/>
      <use xlink:href="#DejaVuSans-Bold-65" x="1703.90625"/>
      <use xlink:href="#DejaVuSans-Bold-73" x="1771.728516"/>
     </g>
    </g>
   </g>
   <g id="text_41">
    <g clip-path="url(#pea5b55c802)">
     <!-- Tamil is one of the most ancient languages -->
     <g transform="translate(969.279507 569.079817) scale(0.12 -0.12)">
      <use xlink:href="#DejaVuSans-Bold-54"/>
      <use xlink:href="#DejaVuSans-Bold-61" x="55.337891"/>
      <use xlink:href="#DejaVuSans-Bold-6d" x="122.818359"/>
      <use xlink:href="#DejaVuSans-Bold-69" x="227.017578"/>
      <use xlink:href="#DejaVuSans-Bold-6c" x="261.294922"/>
      <use xlink:href="#DejaVuSans-Bold-20" x="295.572266"/>
      <use xlink:href="#DejaVuSans-Bold-69" x="330.386719"/>
      <use xlink:href="#DejaVuSans-Bold-73" x="364.664062"/>
      <use xlink:href="#DejaVuSans-Bold-20" x="424.185547"/>
      <use xlink:href="#DejaVuSans-Bold-6f" x="459"/>
      <use xlink:href="#DejaVuSans-Bold-6e" x="527.701172"/>
      <use xlink:href="#DejaVuSans-Bold-65" x="598.892578"/>
      <use xlink:href="#DejaVuSans-Bold-20" x="666.714844"/>
      <use xlink:href="#DejaVuSans-Bold-6f" x="701.529297"/>
      <use xlink:href="#DejaVuSans-Bold-66" x="770.230469"/>
      <use xlink:href="#DejaVuSans-Bold-20" x="813.736328"/>
      <use xlink:href="#DejaVuSans-Bold-74" x="848.550781"/>
      <use xlink:href="#DejaVuSans-Bold-68" x="896.353516"/>
      <use xlink:href="#DejaVuSans-Bold-65" x="967.544922"/>
      <use xlink:href="#DejaVuSans-Bold-20" x="1035.367188"/>
      <use xlink:href="#DejaVuSans-Bold-6d" x="1070.181641"/>
      <use xlink:href="#DejaVuSans-Bold-6f" x="1174.380859"/>
      <use xlink:href="#DejaVuSans-Bold-73" x="1243.082031"/>
      <use xlink:href="#DejaVuSans-Bold-74" x="1302.603516"/>
      <use xlink:href="#DejaVuSans-Bold-20" x="1350.40625"/>
      <use xlink:href="#DejaVuSans-Bold-61" x="1385.220703"/>
      <use xlink:href="#DejaVuSans-Bold-6e" x="1452.701172"/>
      <use xlink:href="#DejaVuSans-Bold-63" x="1523.892578"/>
      <use xlink:href="#DejaVuSans-Bold-69" x="1583.169922"/>
      <use xlink:href="#DejaVuSans-Bold-65" x="1617.447266"/>
      <use xlink:href="#DejaVuSans-Bold-6e" x="1685.269531"/>
      <use xlink:href="#DejaVuSans-Bold-74" x="1756.460938"/>
      <use xlink:href="#DejaVuSans-Bold-20" x="1804.263672"/>
      <use xlink:href="#DejaVuSans-Bold-6c" x="1839.078125"/>
      <use xlink:href="#DejaVuSans-Bold-61" x="1873.355469"/>
      <use xlink:href="#DejaVuSans-Bold-6e" x="1940.835938"/>
      <use xlink:href="#DejaVuSans-Bold-67" x="2012.027344"/>
      <use xlink:href="#DejaVuSans-Bold-75" x="2083.609375"/>
      <use xlink:href="#DejaVuSans-Bold-61" x="2154.800781"/>
      <use xlink:href="#DejaVuSans-Bold-67" x="2222.28125"/>
      <use xlink:href="#DejaVuSans-Bold-65" x="2293.863281"/>
      <use xlink:href="#DejaVuSans-Bold-73" x="2361.685547"/>
     </g>
    </g>
   </g>
  </g>
 </g>
 <defs>
  <clipPath id="pea5b55c802">
   <rect x="0" y="0" width="1440" height="1440"/>
  </clipPath>
 </defs>
</svg>
